<svg width="500" height="500" viewBox="0 0 500 500" fill="none" xmlns="http://www.w3.org/2000/svg">
<rect width="500" height="500" fill="#F9F4EE"/>
<path fill-rule="evenodd" clip-rule="evenodd" d="M439.905 318.282C445.061 318.282 448.703 316.12 448.703 313.359C448.703 310.923 447.141 309.288 442.884 309.288H439.67C437.498 309.288 436.602 308.583 436.602 307.68C436.602 306.477 437.705 306.344 441.397 305.81C444.061 305.41 447.122 303.971 447.122 300.596C447.122 297.621 444.134 295.832 441.294 295.693C441.431 294.756 441.741 294.029 442.659 294.029C443.067 294.029 443.408 294.094 443.855 294.094C445.104 294.094 445.868 293.62 445.868 292.539C445.868 291.795 445.277 291.189 444.17 291.189C441.909 291.189 440.605 294.236 440.605 295.693C437.945 295.693 434.337 297.286 434.337 300.931C434.337 303.771 436.557 305.177 438.776 305.543V305.646C436.295 305.613 433.892 306.614 433.892 308.853C433.892 309.991 434.483 310.86 435.351 311.496C433.888 311.847 432.619 312.788 432.619 314.302C432.619 316.895 435.761 318.282 439.905 318.282V318.282ZM278.906 302.791C278.906 299.279 276.696 295.693 272.206 295.693C267.471 295.693 264.334 299.713 264.334 303.793C264.334 308.246 267.887 311.433 271.999 311.433C277.282 311.433 278.94 307.343 278.94 306.708C278.94 306.472 278.837 306.337 278.63 306.337C278.217 306.337 278.147 307.24 276.903 308.078C275.903 308.749 274.834 309.084 273.347 309.084C269.03 309.084 267.505 306.14 267.44 302.794H278.906V302.791V302.791ZM227.739 311.424C232.361 311.424 235.811 307.704 235.811 303.557C235.811 299.414 232.361 295.69 227.739 295.69C223.117 295.69 219.667 299.414 219.667 303.557C219.667 307.704 223.119 311.424 227.739 311.424ZM209.635 174C209.635 174 157.471 175.105 137.347 203.3C129.616 195.898 118.157 190.59 101.511 190.59C60.9645 190.59 39 224.108 39 261.012C39 297.914 71.0999 325 97.1171 325C122.817 325 157.75 319.707 168.365 256.588C174.539 254.515 183.587 249.316 189.359 236.295C189.359 236.295 188.684 234.603 185.643 234.603C185.643 234.603 179.798 247.703 169.089 252.12C179.419 188.705 203.271 179.727 208.619 177.384C208.621 177.384 213.015 175.016 209.635 174V174Z" fill="#383737"/>
<path fill-rule="evenodd" clip-rule="evenodd" d="M145.65 249.011C141.633 245.306 139.694 238.944 139.694 228.511C139.694 224.946 140.679 221.087 142.445 217.156C145.323 223.316 147.13 231.128 147.13 241.038C147.127 241.038 146.839 244.273 145.65 249.011V249.011Z" fill="#F9F4EE"/>
<path fill-rule="evenodd" clip-rule="evenodd" d="M96.4436 320.938C76.509 320.938 43.0566 302.658 43.0566 253.565C43.0566 253.565 47.7868 194.315 102.863 194.315C102.863 194.315 122.084 193.29 135.193 206.637C131.664 212.725 129.555 219.944 129.555 228.511C129.555 228.511 130.905 245.294 144.356 253.52C140.019 266.952 129.194 286.407 102.863 286.407C102.863 286.407 69.4126 285.391 76.5066 243.747C76.5066 243.747 75.4929 241.378 72.1128 242.731C72.1128 242.731 64.68 290.131 102.86 290.131C131.258 290.131 144.137 272.137 149.141 255.852C150.424 256.336 151.791 256.745 153.244 257.075C135.51 316.631 116.143 320.938 96.4436 320.938Z" fill="#F9F4EE"/>
<path fill-rule="evenodd" clip-rule="evenodd" d="M154.453 252.992C153.011 252.747 151.597 252.358 150.232 251.831C151.388 246.93 151.856 242.349 151.856 238.669C151.856 231.536 150.042 221.65 144.755 212.695C154.583 195.982 177.083 179.416 197.472 179.416C197.472 179.416 172.331 193.014 154.453 252.992V252.992Z" fill="#F9F4EE"/>
<path fill-rule="evenodd" clip-rule="evenodd" d="M199.57 238.934C199.57 229.94 190.891 232.516 190.891 229.471C190.891 227.598 196.531 229.471 211.157 222.442V238.115H211.373C213.869 230.056 219.293 222.442 226.56 222.442C231.444 222.442 235.132 225.723 235.132 230.858C235.132 235.065 231.877 237.4 228.73 237.4C223.63 237.4 223.956 231.792 219.831 231.813C216.579 231.813 211.476 237.299 211.476 252V268.573C211.476 276.166 219.505 272.54 219.505 275.46C219.505 276.401 218.746 276.63 217.335 276.63C212.778 276.63 209.095 276.399 205.523 276.399C201.951 276.399 198.266 276.63 193.711 276.63C192.301 276.63 191.539 276.399 191.539 275.46C191.539 272.54 199.568 276.166 199.568 268.573V238.934H199.57ZM295.911 260.998C304.59 238.029 305.239 236.163 305.239 231.613C305.239 223.79 298.623 226.484 298.623 224.375C298.623 223.436 299.382 223.203 300.468 223.203C303.505 223.203 306.001 223.434 308.388 223.434C310.885 223.434 314.793 223.203 316.749 223.203C317.724 223.203 318.269 223.554 318.269 224.259C318.269 226.366 312.84 223.439 307.089 238.026L292.223 275.92C291.786 277.085 291.356 277.786 290.594 277.786C289.833 277.786 289.29 277.085 288.858 275.92L276.166 242.109L262.062 275.92C261.625 277.085 261.195 277.786 260.433 277.786C259.672 277.786 259.129 277.085 258.696 275.92L242.096 231.031C239.6 224.259 235.802 225.783 235.802 224.375C235.802 223.436 236.345 223.203 237.539 223.203C240.035 223.203 243.29 223.434 248.061 223.434C250.773 223.434 253.378 223.203 257.719 223.203C259.126 223.203 259.777 223.203 259.777 224.375C259.777 226.599 255.114 224.493 255.114 229.281C255.114 230.797 255.547 231.845 255.874 232.894L265.961 260.177L274.965 239.54L271.712 231.144C268.887 224.139 264.875 226.479 264.875 224.373C264.875 223.2 265.742 223.2 266.934 223.2C272.358 223.2 274.962 223.431 277.567 223.431C282.775 223.431 285.487 223.2 287.659 223.2C289.609 223.2 290.15 223.436 290.15 224.373C290.15 226.83 284.617 224.491 284.617 229.045C284.617 230.795 284.942 231.842 285.377 232.892L295.911 260.998V260.998ZM337.108 268.568C337.108 276.166 345.137 272.536 345.137 275.46C345.137 276.401 344.378 276.63 342.97 276.63C338.415 276.63 334.725 276.399 331.155 276.399C327.581 276.399 323.898 276.63 319.341 276.63C317.933 276.63 317.174 276.399 317.174 275.46C317.174 272.536 325.202 276.166 325.202 268.568V239.6C325.202 231.074 316.523 232.827 316.523 230.607C316.523 228.388 321.731 229.204 337.111 222.43V268.568H337.108V268.568ZM330.773 201.666C334.879 201.666 338.122 205.168 338.122 209.602C338.122 214.036 334.879 217.536 330.773 217.536C326.668 217.536 323.425 214.034 323.425 209.602C323.425 205.168 326.668 201.666 330.773 201.666ZM367.053 268.564C367.053 276.166 375.072 272.536 375.072 275.46C375.072 276.401 374.318 276.63 372.905 276.63C368.353 276.63 364.67 276.399 361.096 276.399C357.526 276.399 353.841 276.63 349.286 276.63C347.873 276.63 347.114 276.399 347.114 275.46C347.114 272.536 355.143 276.166 355.143 268.564V240.272C355.143 230.569 346.463 233.142 346.463 230.569C346.463 227.995 353.843 229.165 367.056 222.43V231.739C374.75 225.562 379.846 222.43 386.894 222.43C395.341 222.43 399.24 227.415 399.24 235.479V268.564C399.24 276.166 407.268 272.536 407.268 275.46C407.268 276.401 406.509 276.63 405.097 276.63C400.542 276.63 396.857 276.399 393.287 276.399C389.712 276.399 386.029 276.63 381.477 276.63C380.064 276.63 379.31 276.399 379.31 275.46C379.31 272.536 387.329 276.166 387.329 268.564V235.361C387.329 230.102 383.646 227.762 380.502 227.762C375.622 227.762 369.766 232.439 367.058 235.01V268.564H367.053V268.564ZM418.828 204.667C418.828 211.436 414.487 216.689 410.692 219.84C406.567 223.224 405.483 223.573 404.943 223.573C404.397 223.573 404.076 223.222 404.076 222.639C404.076 221.823 405.591 221.238 408.63 218.554C410.581 216.804 412.318 214.238 412.318 210.851C412.318 207.818 411.559 207.233 407.977 207.233C403.636 207.233 400.602 205.25 400.602 200.465C400.602 196.847 403.206 193.229 408.847 193.229C413.728 193.229 418.828 196.964 418.828 204.667V204.667ZM446.671 239.856C446.671 240.792 446.455 241.026 445.809 241.026C444.942 241.026 444.942 239.504 442.777 234.589C440.394 229.088 436.481 225.225 429.958 225.225C424.849 225.225 422.023 228.152 422.023 231.195C422.023 243.481 450.025 240.438 450.025 259.867C450.025 270.167 442.669 277.408 429.85 277.408C421.915 277.408 415.638 274.962 412.827 273.797V256.59C412.827 255.89 413.043 255.536 413.582 255.536C414.881 255.536 414.127 257.406 416.83 263.025C420.399 270.167 424.74 274.613 431.914 274.613C437.461 274.613 441.153 271.337 441.153 266.301C441.153 252.609 413.152 256.121 413.152 237.278C413.152 231.074 417.807 222.43 430.395 222.43C436.697 222.43 443.647 224.524 446.671 226.161V239.856V239.856ZM202.984 299.424V308.297C202.984 311.207 206.045 309.811 206.045 310.846C206.045 311.043 205.905 311.241 205.593 311.241C204.757 311.241 203.923 311.18 201.312 311.18C198.703 311.18 197.869 311.241 197.038 311.241C196.726 311.241 196.589 311.043 196.589 310.846C196.589 309.811 199.64 311.207 199.64 308.297V291.268C199.64 288.358 196.589 289.754 196.589 288.719C196.589 288.522 196.726 288.324 197.038 288.324C197.869 288.324 198.703 288.384 201.312 288.384C203.923 288.384 204.759 288.324 205.593 288.324C205.905 288.324 206.045 288.522 206.045 288.719C206.045 289.754 202.984 288.358 202.984 291.268V298.805H213.069V291.268C213.069 288.358 210.008 289.754 210.008 288.719C210.008 288.522 210.148 288.324 210.46 288.324C211.294 288.324 212.127 288.384 214.741 288.384C217.35 288.384 218.181 288.324 219.012 288.324C219.325 288.324 219.464 288.522 219.464 288.719C219.464 289.754 216.413 288.358 216.413 291.268V308.297C216.413 311.207 219.464 309.811 219.464 310.846C219.464 311.043 219.325 311.241 219.012 311.241C218.181 311.241 217.35 311.18 214.741 311.18C212.127 311.18 211.294 311.241 210.46 311.241C210.148 311.241 210.008 311.043 210.008 310.846C210.008 309.811 213.069 311.207 213.069 308.297V299.424H202.984V299.424Z" fill="#383737"/>
<path fill-rule="evenodd" clip-rule="evenodd" d="M227.738 310.61C224.264 310.61 223.013 307.136 223.013 303.557C223.013 299.985 224.264 296.504 227.738 296.504C231.212 296.504 232.463 299.982 232.463 303.557C232.466 307.134 231.214 310.61 227.738 310.61Z" fill="#F9F4EE"/>
<path fill-rule="evenodd" clip-rule="evenodd" d="M251.654 308.822C251.654 310.933 254.229 309.927 254.229 310.829C254.229 311.135 254.056 311.234 253.672 311.234C252.805 311.234 252.002 311.178 250.1 311.178C248.199 311.178 247.397 311.234 246.527 311.234C246.145 311.234 245.97 311.135 245.97 310.829C245.97 309.927 248.548 310.933 248.548 308.822V299.597C248.548 298.192 247.748 297.457 246.246 297.457C244.714 297.457 243.287 298.192 241.579 299.727V308.815C241.579 310.931 244.156 309.924 244.156 310.827C244.156 311.133 243.983 311.231 243.599 311.231C242.727 311.231 241.927 311.176 240.027 311.176C238.127 311.176 237.329 311.231 236.464 311.231C236.082 311.231 235.909 311.133 235.909 310.827C235.909 309.924 238.472 310.931 238.472 308.815V299.566C238.472 297.308 235.909 298.259 235.909 297.479C235.909 296.868 236.846 297.445 241.579 295.688V298.791C242.833 297.587 245.307 295.688 247.921 295.688C250.133 295.688 251.375 296.911 251.618 298.856C254.128 297.046 255.591 295.758 257.994 295.688C260.519 295.654 261.725 296.877 261.725 298.791V308.819C261.725 310.931 264.29 309.924 264.29 310.827C264.29 311.133 264.117 311.231 263.738 311.231C262.871 311.231 262.073 311.176 260.178 311.176C258.277 311.176 257.475 311.231 256.603 311.231C256.218 311.231 256.045 311.133 256.045 310.827C256.045 309.924 258.626 310.931 258.626 308.819V299.595C258.626 298.156 257.927 297.455 256.464 297.455C255.455 297.455 254.061 297.855 251.659 299.528V308.822H251.654V308.822Z" fill="#383737"/>
<path fill-rule="evenodd" clip-rule="evenodd" d="M267.368 301.978C267.438 298.815 269.682 296.316 272.173 296.316C274.486 296.316 275.8 297.881 275.8 301.978H267.368Z" fill="#F9F4EE"/>
<path fill-rule="evenodd" clip-rule="evenodd" d="M296.304 298.802C299.593 298.802 302.015 297.861 302.015 294.339C302.015 293.87 302.084 293.668 302.363 293.668C302.673 293.668 302.711 293.87 302.711 294.339V304.225C302.711 304.695 302.673 304.897 302.363 304.897C302.087 304.897 302.015 304.695 302.015 304.225C302.015 300.564 299.593 299.421 296.304 299.421V308.294C296.304 311.204 299.35 309.808 299.35 310.843C299.35 311.04 299.213 311.238 298.899 311.238C298.067 311.238 297.239 311.177 294.635 311.177C292.026 311.177 291.194 311.238 290.361 311.238C290.051 311.238 289.909 311.04 289.909 310.843C289.909 309.808 292.96 311.204 292.96 308.294V291.289C292.96 288.36 289.909 289.78 289.909 288.733C289.909 288.531 290.051 288.328 290.361 288.328C291.197 288.328 292.026 288.379 294.635 288.379C301.049 288.379 302.466 288.36 305.829 288.328L307.979 294.676C308.152 295.249 308.225 295.415 308.225 295.584C308.225 295.752 308.116 295.885 307.876 295.885C307.631 295.885 307.528 295.649 307.285 295.047C305.104 289.58 301.707 289.142 296.307 289.142V298.802H296.304V298.802ZM321.469 308.45C319.804 309.658 317.517 311.42 314.917 311.42C312.116 311.42 311.014 309.93 311.014 307.942V299.654C311.014 297.271 308.311 298.21 308.311 297.37C308.311 296.763 310.324 297.201 314.12 295.687V307.441C314.12 308.852 314.706 309.661 316.474 309.661C318.449 309.661 319.801 308.989 321.466 307.644V299.657C321.466 297.274 318.764 298.212 318.764 297.372C318.764 296.766 320.772 297.204 324.572 295.69V307.396C324.572 309.784 327.275 308.845 327.275 309.685C327.275 310.292 325.267 309.853 321.466 311.425V308.45H321.469V308.45ZM330.158 299.659C330.158 297.271 327.455 298.21 327.455 297.37C327.455 296.763 329.464 297.201 333.264 295.687V300.037H333.329C334.924 296.486 336.486 295.687 338.011 295.687C339.395 295.687 340.161 296.354 340.161 297.502C340.161 298.578 339.363 299.115 338.393 299.115C337.216 299.115 337.35 298.306 336.07 298.292C334.617 298.292 333.264 300.502 333.264 304.16V308.821C333.264 310.937 335.825 309.93 335.825 310.833C335.825 311.139 335.652 311.238 335.272 311.238C334.405 311.238 333.608 311.182 331.712 311.182C329.812 311.182 329.014 311.238 328.152 311.238C327.767 311.238 327.594 311.139 327.594 310.833C327.594 309.93 330.16 310.937 330.16 308.821V299.659H330.158V299.659ZM346.359 298.792C348.024 297.589 350.311 295.69 352.91 295.69C355.711 295.69 356.814 297.184 356.814 299.158V308.821C356.814 310.932 359.375 309.926 359.375 310.828C359.375 311.134 359.202 311.233 358.822 311.233C357.96 311.233 357.162 311.177 355.262 311.177C353.362 311.177 352.564 311.233 351.702 311.233C351.317 311.233 351.144 311.134 351.144 310.828C351.144 309.926 353.71 310.932 353.71 308.821V299.661C353.71 298.256 353.124 297.456 351.356 297.456C349.381 297.456 348.029 298.256 346.364 299.726V308.814C346.364 310.929 348.93 309.923 348.93 310.826C348.93 311.132 348.757 311.23 348.372 311.23C347.51 311.23 346.712 311.175 344.812 311.175C342.912 311.175 342.114 311.23 341.252 311.23C340.872 311.23 340.699 311.132 340.699 310.826C340.699 309.923 343.26 310.929 343.26 308.814V299.565C343.26 297.307 340.699 298.258 340.699 297.478C340.699 296.867 341.634 297.444 346.366 295.687V298.792H346.359V298.792ZM366.282 308.818C366.282 310.934 368.847 309.928 368.847 310.831C368.847 311.136 368.674 311.235 368.295 311.235C367.427 311.235 366.63 311.18 364.73 311.18C362.834 311.18 362.037 311.235 361.169 311.235C360.79 311.235 360.617 311.136 360.617 310.831C360.617 309.928 363.178 310.934 363.178 308.818V299.57C363.178 297.312 360.617 298.263 360.617 297.483C360.617 296.872 361.484 297.449 366.284 295.687V308.818H366.282V308.818ZM362.608 291.496C362.608 290.391 363.233 289.652 364.509 289.652C365.789 289.652 366.409 290.391 366.409 291.496C366.409 292.601 365.789 293.335 364.509 293.335C363.233 293.335 362.608 292.601 362.608 291.496ZM376.465 295.69C378.051 295.69 380.266 296.173 381.452 296.715V300.988C381.452 301.25 381.344 301.354 381.171 301.354C380.895 301.354 380.895 301.053 380.684 300.485C379.881 298.35 378.709 296.315 376.021 296.315C374.603 296.315 373.501 297.081 373.501 298.752C373.501 302.09 382.495 302.189 382.495 306.828C382.495 309.329 380.441 311.42 376.124 311.42C374.224 311.42 372.564 311.213 370.644 310.566V305.663C370.644 305.258 370.747 305.061 370.959 305.061C371.132 305.061 371.274 305.224 371.55 306.096C372.494 308.996 374.435 310.802 376.885 310.802C378.987 310.802 379.85 309.331 379.85 307.961C379.85 304.558 370.851 304.996 370.851 300.02C370.848 297.784 372.869 295.69 376.465 295.69V295.69ZM389.86 298.792C391.52 297.589 393.812 295.69 396.412 295.69C399.208 295.69 400.311 297.184 400.311 299.158V308.821C400.311 310.932 402.876 309.926 402.876 310.828C402.876 311.134 402.703 311.233 402.324 311.233C401.456 311.233 400.659 311.177 398.763 311.177C396.863 311.177 396.066 311.233 395.198 311.233C394.819 311.233 394.646 311.134 394.646 310.828C394.646 309.926 397.212 310.932 397.212 308.821V299.661C397.212 298.256 396.621 297.456 394.852 297.456C392.878 297.456 391.525 298.256 389.865 299.726V308.818C389.865 310.929 392.426 309.923 392.426 310.826C392.426 311.132 392.253 311.23 391.874 311.23C391.006 311.23 390.209 311.175 388.313 311.175C386.413 311.175 385.616 311.23 384.748 311.23C384.369 311.23 384.196 311.132 384.196 310.826C384.196 309.923 386.761 310.929 386.761 308.818V290.562C386.761 288.297 383.989 289.246 383.989 288.466C383.989 287.849 385.135 288.432 389.868 286.67V298.792H389.86V298.792ZM409.783 308.818C409.783 310.934 412.344 309.928 412.344 310.831C412.344 311.136 412.171 311.235 411.791 311.235C410.929 311.235 410.131 311.18 408.231 311.18C406.331 311.18 405.533 311.235 404.671 311.235C404.286 311.235 404.113 311.136 404.113 310.831C404.113 309.928 406.679 310.934 406.679 308.818V299.57C406.679 297.312 404.113 298.263 404.113 297.483C404.113 296.872 404.981 297.449 409.785 295.687V308.818H409.783ZM406.107 291.496C406.107 290.391 406.727 289.652 408.008 289.652C409.283 289.652 409.908 290.391 409.908 291.496C409.908 292.601 409.283 293.335 408.008 293.335C406.727 293.335 406.107 292.601 406.107 291.496ZM419.284 298.792C420.944 297.589 423.236 295.69 425.835 295.69C428.636 295.69 429.739 297.184 429.739 299.158V308.821C429.739 310.932 432.3 309.926 432.3 310.828C432.3 311.134 432.132 311.233 431.747 311.233C430.885 311.233 430.087 311.177 428.187 311.177C426.287 311.177 425.489 311.233 424.627 311.233C424.243 311.233 424.07 311.134 424.07 310.828C424.07 309.926 426.635 310.932 426.635 308.821V299.661C426.635 298.256 426.049 297.456 424.281 297.456C422.306 297.456 420.949 298.256 419.289 299.726V308.814C419.289 310.929 421.855 309.923 421.855 310.826C421.855 311.132 421.682 311.23 421.297 311.23C420.435 311.23 419.637 311.175 417.737 311.175C415.842 311.175 415.044 311.23 414.177 311.23C413.797 311.23 413.624 311.132 413.624 310.826C413.624 309.923 416.185 310.929 416.185 308.814V299.565C416.185 297.307 413.624 298.258 413.624 297.478C413.624 296.867 414.559 297.444 419.291 295.687V298.792H419.284V298.792Z" fill="#383737"/>
<path fill-rule="evenodd" clip-rule="evenodd" d="M445.991 314.37C445.991 316.323 443.954 317.468 439.7 317.468C436.219 317.468 434.266 316.255 434.266 314.098C434.266 312.753 435.133 311.814 436.147 311.814C442.506 313.058 445.991 311.258 445.991 314.37ZM437.809 300.765C437.771 297.652 438.602 296.316 440.742 296.316C442.9 296.316 443.651 297.652 443.651 300.765C443.685 303.873 442.902 305.209 440.742 305.209C438.602 305.209 437.809 303.873 437.809 300.765Z" fill="#F9F4EE"/>
<path fill-rule="evenodd" clip-rule="evenodd" d="M455.177 295.691C456.763 295.691 458.978 296.175 460.16 296.717V300.99C460.16 301.252 460.056 301.356 459.884 301.356C459.602 301.356 459.602 301.055 459.396 300.487C458.593 298.351 457.421 296.317 454.728 296.317C453.315 296.317 452.213 297.083 452.213 298.753C452.213 302.092 461.207 302.191 461.207 306.829C461.207 309.331 459.153 311.422 454.831 311.422C452.936 311.422 451.271 311.215 449.356 310.568V305.664C449.356 305.26 449.46 305.063 449.671 305.063C449.844 305.063 449.981 305.226 450.262 306.098C451.201 308.998 453.143 310.804 455.593 310.804C457.7 310.804 458.562 309.333 458.562 307.963C458.562 304.559 449.563 304.998 449.563 300.022C449.561 297.786 451.583 295.691 455.177 295.691V295.691Z" fill="#383737"/>
</svg>
