<svg width="500" height="500" viewBox="0 0 500 500" fill="none" xmlns="http://www.w3.org/2000/svg">
<rect width="500" height="500" fill="#F9F4EE"/>
<path fill-rule="evenodd" clip-rule="evenodd" d="M131.005 237.077H137.509V183.445H131.005V182H156.537V183.445H150.035V208.011H170.91V183.445H164.405V182H189.935V183.445H183.434V237.077H189.935V238.522H164.405V237.077H170.91V209.456H150.035V237.077H156.537V238.522H131.005V237.077V237.077ZM210.795 202.231C221.394 202.231 229.903 209.857 229.903 220.858C229.903 231.856 221.394 239.485 210.795 239.485C200.2 239.485 191.688 231.856 191.688 220.858C191.688 209.857 200.2 202.231 210.795 202.231V202.231Z" fill="#383737"/>
<path fill-rule="evenodd" clip-rule="evenodd" d="M204.212 229.528C204.212 235.55 206.704 238.037 210.794 238.037C214.89 238.037 217.379 235.548 217.379 229.528V212.187C217.379 206.167 214.89 203.678 210.794 203.678C206.701 203.678 204.212 206.167 204.212 212.187V229.528V229.528Z" fill="#F9F4EE"/>
<path fill-rule="evenodd" clip-rule="evenodd" d="M236.72 204.639H231.18V203.194H236.882C240.173 203.194 246.115 203.194 247.799 201.105V209.698H247.961C250.127 205.04 255.428 202.23 260.805 202.23C265.46 202.23 269.554 204.639 271.082 209.698C273.732 204.881 278.547 202.23 283.929 202.23C290.672 202.23 294.364 206.003 294.364 214.674V237.073H299.905V238.519H279.031V237.073H283.286V212.265C283.286 207.529 282.484 205.12 279.513 205.12C274.456 205.12 271.084 211.463 271.084 215.075V237.073H275.498V238.519H255.506V237.073H260.005V212.265C260.005 207.529 259.203 205.12 256.233 205.12C251.174 205.12 247.802 211.463 247.802 215.075V237.073H251.978V238.519H231.182V237.073H236.723V204.639H236.72V204.639ZM313.229 219.089V225.833C313.229 231.293 314.031 237.555 321.496 237.555C327.76 237.555 332.418 232.9 334.181 225.432H335.629C333.861 233.379 328.966 239.482 319.09 239.482C308.813 239.482 301.186 231.694 301.186 221.256C301.186 210.417 309.378 202.228 318.848 202.228C327.281 202.066 335.308 210.417 335.391 219.087H313.229V219.089V219.089Z" fill="#383737"/>
<path fill-rule="evenodd" clip-rule="evenodd" d="M323.345 217.643V210.738C323.345 206.322 322.142 203.672 318.288 203.672C315.557 203.672 313.231 205.359 313.231 210.738V217.643H323.345Z" fill="#F9F4EE"/>
<path fill-rule="evenodd" clip-rule="evenodd" d="M49.2029 266.849H51.0221C53.4501 277.852 61.1377 292.462 74.7913 292.462C83.4887 292.462 89.357 287.3 89.357 278.732C89.357 257.504 49 272.791 49 243.483C49 230.629 57.9003 222.548 71.2532 222.548C81.469 222.548 84.7039 227.805 89.2567 227.805C92.2912 227.805 92.4917 225.274 92.4917 224.008H94.3133V245.916H92.4917C89.9634 235.595 84.298 224.299 71.5564 224.299C63.8689 224.299 58.1032 229.265 58.1032 236.764C58.1032 255.555 99.0666 240.757 99.0666 269.676C99.0666 284.862 90.1663 294.213 75.9038 294.213C67.1038 294.213 58.8123 289.146 54.7656 289.146C52.0344 289.146 51.0221 290.899 51.0221 292.753H49.2029V266.849V266.849ZM101.458 290.899H108.177V225.859H101.458V224.106H107.593C114.508 224.106 119.863 224.106 121.613 221.184V257.699H121.809C124.437 252.049 130.866 248.643 137.389 248.643C146.639 248.643 151.119 253.22 151.119 263.734V290.897H157.838V292.65H132.13V290.897H137.68V260.132C137.68 253.313 134.761 252.146 131.934 252.146C126.484 252.146 121.613 259.252 121.613 264.221V290.897H127.359V292.65H101.458V290.899V290.899ZM179.898 248.643C192.752 248.643 203.073 257.895 203.073 271.233C203.073 284.571 192.752 293.821 179.898 293.821C167.046 293.821 156.723 284.571 156.723 271.233C156.723 257.895 167.046 248.643 179.898 248.643Z" fill="#383737"/>
<path fill-rule="evenodd" clip-rule="evenodd" d="M171.912 281.749C171.912 289.05 174.932 292.07 179.895 292.07C184.862 292.07 187.881 289.053 187.881 281.749V260.716C187.881 253.415 184.864 250.393 179.895 250.393C174.932 250.393 171.912 253.412 171.912 260.716V281.749Z" fill="#F9F4EE"/>
<path fill-rule="evenodd" clip-rule="evenodd" d="M204.814 316.704H211.534V251.563H204.814V249.81H210.949C217.864 249.81 223.219 249.715 224.97 246.793V256.143H225.165C227.794 250.982 232.078 248.644 237.239 248.644C250.287 248.644 257.981 259.547 257.981 272.012C257.981 285.546 247.174 293.823 237.435 293.823C231.009 293.823 227.503 291.096 225.165 286.717H224.97V316.704H232.371V318.462H204.814V316.704Z" fill="#383737"/>
<path fill-rule="evenodd" clip-rule="evenodd" d="M243.373 262.077C243.373 255.262 240.647 250.979 235.485 250.979C228.864 250.979 224.969 257.307 224.969 262.759V279.799C224.969 285.45 228.671 291.485 235.097 291.485C240.451 291.485 243.373 287.392 243.373 277.851V262.077Z" fill="#F9F4EE"/>
<path fill-rule="evenodd" clip-rule="evenodd" d="M256.675 316.704H263.39V251.563H256.675V249.81H262.808C269.723 249.81 275.077 249.715 276.828 246.793V256.143H277.024C279.65 250.982 283.934 248.644 289.098 248.644C302.145 248.644 309.838 259.547 309.838 272.012C309.838 285.546 299.03 293.823 289.293 293.823C282.865 293.823 279.361 291.096 277.024 286.717H276.828V316.704H284.23V318.462H256.673V316.704H256.675Z" fill="#383737"/>
<path fill-rule="evenodd" clip-rule="evenodd" d="M295.235 262.077C295.235 255.262 292.509 250.979 287.345 250.979C280.726 250.979 276.828 257.307 276.828 262.759V279.799C276.828 285.45 280.53 291.485 286.958 291.485C292.311 291.485 295.235 287.392 295.235 277.851V262.077Z" fill="#F9F4EE"/>
<path fill-rule="evenodd" clip-rule="evenodd" d="M309.089 290.899H315.803V251.562H309.089V249.809H315.999C319.992 249.809 327.198 249.809 329.242 247.278V290.897H335.961V292.65H309.089V290.899V290.899ZM337.352 290.899H344.071V251.562H337.352V249.809H344.267C348.26 249.809 355.461 249.809 357.51 247.278V257.697H357.701C360.332 252.046 366.76 248.64 373.283 248.64C382.529 248.64 387.008 253.217 387.008 263.731V290.894H393.727V292.648H368.024V290.894H373.574V260.13C373.574 253.31 370.652 252.144 367.828 252.144C362.376 252.144 357.507 259.249 357.507 264.218V290.894H363.254V292.648H337.35V290.899H337.352V290.899ZM427.739 282.466C439.138 282.261 444.721 286.725 444.721 296.574C444.721 308.957 434.133 318.495 417.968 318.495C405.056 318.495 394.935 312.712 394.935 305.198C394.935 300.328 400.285 296.269 404.936 295.151V294.951C400.05 293.733 397.375 289.875 397.375 284.804C397.375 276.38 404.471 273.639 409.009 273.133V272.928C402.845 270.492 399.353 266.128 399.353 260.545C399.353 251.31 409.821 245.728 419.597 245.728C426.111 245.728 430.761 247.251 434.133 249.381C436.344 247.148 439.253 244.916 443.092 244.916C446.584 244.916 451 246.743 451 250.295C451 253.036 448.909 255.472 445.183 255.472C441.696 255.472 439.833 253.137 439.833 250.801C439.833 248.772 440.53 247.452 442.975 246.337V246.134C438.439 246.64 437.388 248.872 435.295 250.701C438.551 253.137 440.295 257.702 440.295 260.949C440.295 270.59 429.592 275.568 419.592 275.568C417.729 275.568 416.215 275.363 414.821 274.957C413.543 274.651 412.261 274.351 410.983 274.351C406.559 274.351 401.559 277.092 401.559 279.627C401.559 282.368 405.513 282.468 408.423 282.468H427.739V282.466V282.466Z" fill="#383737"/>
<path fill-rule="evenodd" clip-rule="evenodd" d="M406.799 295.253C403.657 298.194 401.914 301.136 401.914 305.601C402.149 310.471 407.846 316.665 418.318 316.665C430.067 316.665 440.535 309.765 440.535 302.351C440.535 296.163 436.696 295.25 425.062 295.25H406.799V295.253V295.253ZM427.043 260.539C426.923 248.869 425.18 247.551 419.712 247.551C413.661 247.551 412.616 252.016 412.616 260.239C412.616 272.415 415.062 273.736 419.712 273.736C423.901 273.733 426.923 273.022 427.043 260.539Z" fill="#F9F4EE"/>
<path fill-rule="evenodd" clip-rule="evenodd" d="M84.7511 193.545L84.8807 201.538H83.3745C82.4894 197.704 80.5895 195.051 76.9536 195.051V212.61C76.9536 214.245 77.7385 214.771 80.5577 214.771V216.082H67.7819V214.771C70.6647 214.771 71.4496 214.245 71.4496 212.61V195.051C67.8137 195.051 65.9138 197.704 65.0287 201.538H63.5225L63.6521 193.545H84.7511V193.545ZM97.2629 204.159C97.2629 202.651 96.8375 202.064 95.8227 202.064C94.4779 202.064 93.1037 204.093 93.1037 207.042V212.612C93.1037 214.118 93.4314 214.774 95.3312 214.774V216.084H85.6999V214.774C87.9934 214.774 88.321 214.118 88.321 212.612V196.79C88.321 195.381 87.7318 195.12 85.8979 195.12V193.875L93.1037 193.743V202.391C94.5464 200.917 95.8227 200.296 97.1993 200.296C100.212 200.296 102.048 201.934 102.048 205.013V212.612C102.048 214.118 102.376 214.774 104.276 214.774V216.084H97.2654V204.159H97.2629ZM111.215 208.45C111.215 211.595 111.968 214.969 115.474 214.969C117.57 214.969 119.372 213.331 120.487 211.695L121.533 212.35C120.223 214.774 118.357 216.478 114.555 216.478C108.985 216.478 105.972 212.089 105.972 208.387C105.972 204.685 108.985 200.293 114.555 200.293C118.55 200.293 121.631 203.242 121.631 208.45H111.215V208.45Z" fill="#383737"/>
<path fill-rule="evenodd" clip-rule="evenodd" d="M116.39 206.942C116.39 202.847 115.603 201.473 114.031 201.473C112.524 201.473 111.475 203.174 111.214 206.942H116.39V206.942Z" fill="#F9F4EE"/>
<path fill-rule="evenodd" clip-rule="evenodd" d="M100.001 300.121H105.561L113.241 310.789H113.219H113.266V302.767C113.266 301.625 112.718 301.263 110.872 301.033V300.121H116.638V301.033C115.087 301.263 114.542 301.625 114.542 302.767V315.804H112.4L103.693 303.723H103.603V313.388C103.603 314.525 104.15 314.892 106.27 314.892V315.804H100.094V314.892C101.781 314.892 102.329 314.525 102.329 313.388V302.537C102.329 301.4 101.781 301.033 100.003 301.033V300.121H100.001V300.121ZM153.513 305.728H152.535C151.738 302.742 149.889 301.172 147.224 301.172C145.811 301.172 145.331 301.512 145.331 302.63V307.053C147.52 307.053 148.273 306.552 148.887 304.412H149.799V310.745H148.887C148.273 308.606 147.52 308.104 145.331 308.104V313.3C145.331 314.418 145.811 314.758 147.224 314.758C150.278 314.758 152.168 312.799 152.899 309.833H153.88L153.743 315.807H139.267V314.895C140.955 314.895 141.502 314.528 141.502 313.391V302.539C141.502 301.402 140.955 301.036 139.267 301.036V300.123H153.376L153.513 305.728V305.728ZM192.327 300.121L192.42 305.684H191.371C190.757 303.014 189.434 301.17 186.904 301.17V313.386C186.904 314.523 187.451 314.89 189.412 314.89V315.802H180.522V314.89C182.527 314.89 183.075 314.523 183.075 313.386V301.17C180.546 301.17 179.223 303.014 178.607 305.684H177.558L177.649 300.121H192.327ZM247.027 300.121V301.033C245.614 301.033 245.044 301.378 245.044 301.921C245.044 302.356 245.25 302.882 245.501 303.769L247.438 310.608H247.482L249.966 303.221C250.081 302.86 250.15 302.539 250.15 302.199C250.15 301.307 249.216 301.033 248.052 301.033V300.121H253.568V301.033C252.294 301.033 251.79 301.696 251.445 302.676L246.888 315.804H245.135L242.398 306.138H242.354L239.049 315.804H237.249L233.738 303.129C233.237 301.329 232.689 301.17 231.733 301.033V300.121H238.799V301.033C237.545 301.033 237.205 301.263 237.205 301.921C237.205 302.175 237.273 302.471 237.41 302.972L239.599 310.608H239.645L241.856 304.114L241.491 302.882C241.083 301.468 240.533 301.033 239.577 301.033V300.121H247.027V300.121ZM299.654 299.85C303.962 299.85 307.652 303.588 307.652 307.963C307.652 312.337 303.96 316.076 299.654 316.076C295.348 316.076 291.656 312.337 291.656 307.963C291.656 303.588 295.345 299.85 299.654 299.85Z" fill="#383737"/>
<path fill-rule="evenodd" clip-rule="evenodd" d="M299.653 315.027C302.318 315.027 303.37 312.337 303.37 307.962C303.37 303.588 302.318 300.898 299.653 300.898C296.988 300.898 295.937 303.588 295.937 307.962C295.937 312.337 296.988 315.027 299.653 315.027Z" fill="#F9F4EE"/>
<path fill-rule="evenodd" clip-rule="evenodd" d="M343.943 312.336C343.943 314.595 343.006 316.074 340.615 316.074C338.29 316.074 337.378 314.842 337.219 312.152C337.062 309.372 336.964 308.619 334.507 308.279V313.064C334.507 314.363 334.803 314.888 336.695 314.888V315.8H328.629V314.888C330.314 314.888 330.859 314.522 330.859 313.385V302.533C330.859 301.396 330.314 301.029 328.629 301.029V300.117H336.605C340.478 300.117 342.442 301.67 342.442 304.315C342.442 307.301 339.476 308.049 336.925 308.098V308.142C339.705 308.509 340.344 309.991 340.864 311.56C341.576 313.771 341.71 314.025 342.258 314.025C342.825 314.025 342.965 313.113 343.031 312.336H343.943V312.336Z" fill="#383737"/>
<path fill-rule="evenodd" clip-rule="evenodd" d="M334.507 307.461C336.991 307.346 338.519 306.96 338.519 304.338C338.519 302.448 337.558 301.172 335.989 301.172C335.191 301.172 334.509 301.492 334.509 302.539V307.461H334.507Z" fill="#F9F4EE"/>
<path fill-rule="evenodd" clip-rule="evenodd" d="M365.619 300.121H373.551V301.033C372.228 301.033 371.678 301.4 371.678 302.537V307.417L376.444 302.742C376.589 302.613 376.706 302.455 376.788 302.278C376.87 302.101 376.915 301.91 376.921 301.715C376.921 301.305 376.691 301.033 375.803 301.033H375.006V300.121H381.796V301.033C380.043 301.263 379.676 301.4 378.769 302.265L375.211 305.613L380.251 313.931C380.637 314.594 381.297 314.892 382.439 314.892V315.804H374.644V314.892C375.485 314.802 375.918 314.662 375.918 314.366C375.918 314.071 375.737 313.75 372.5 308.234L371.678 308.99V313.388C371.678 314.525 372.228 314.892 373.321 314.892V315.804H365.619V314.892C367.304 314.892 367.854 314.525 367.854 313.388V302.537C367.854 301.4 367.304 301.033 365.619 301.033V300.121Z" fill="#383737"/>
</svg>
