<svg width="500" height="500" viewBox="0 0 500 500" fill="none" xmlns="http://www.w3.org/2000/svg">
<rect width="500" height="500" fill="#F9F4EE"/>
<g clip-path="url(#clip0)">
<path d="M47 166.453H77.785V203.996C82.7408 199.255 89.3559 196.635 96.2194 196.694C101.602 196.694 106.196 198.066 109.973 200.801C113.76 203.535 116.086 206.692 116.913 210.27C117.749 213.839 118.172 220.373 118.172 229.852V299.459H87.3866V228.403C87.3866 222.522 87.0983 218.742 86.512 217.073C85.9257 215.403 84.6186 214.569 82.581 214.569C81.7482 214.516 80.9217 214.742 80.2323 215.211C79.5429 215.68 79.03 216.366 78.7749 217.159C78.1117 218.876 77.785 222.302 77.785 227.415V299.449H47V166.453ZM161.23 281.431C160.634 282.755 159.433 283.408 157.607 283.408C155.829 283.408 154.627 282.688 154.022 281.239C153.416 279.791 153.109 276.692 153.109 271.923V226.36C153.109 221.189 153.407 217.927 154.022 216.583C154.637 215.24 155.848 214.569 157.684 214.569C159.519 214.569 160.702 215.24 161.269 216.583C161.826 217.927 162.105 221.189 162.105 226.36V272.921C162.105 277.267 161.807 280.107 161.23 281.431ZM191.4 217.994C190.277 214.255 188.396 210.787 185.873 207.805C180.482 201.204 170.428 196.694 156.617 196.694C140.162 196.694 129.426 203.641 125.38 214.194C123.342 219.471 122.333 226.792 122.333 236.175V262.041C122.333 270.618 122.891 277.047 124.006 281.326C125.121 285.605 126.985 289.26 129.609 292.282C134.838 298.317 144.305 301.291 157.914 301.291C170.101 301.291 179.645 297.895 185.662 290.527C188.661 286.852 190.612 282.899 191.525 278.658C192.438 274.427 192.899 267.769 192.899 258.693V233.968C192.89 226.811 192.39 221.486 191.4 217.994V217.994ZM198.301 198.508H228.711L228.173 208.102C232.94 200.503 239.543 196.694 247.991 196.694C256.219 196.694 262.697 200.494 267.416 208.102C272.596 200.503 279.074 196.694 287.003 196.694C292.232 196.694 296.567 197.961 299.998 200.494C303.429 203.027 305.621 206.135 306.591 209.81C307.562 213.484 308.043 219.462 308.043 227.722V299.459H278.171V233.652C278.171 225.036 277.882 219.692 277.296 217.639C276.7 215.586 275.355 214.559 273.211 214.559C271.02 214.559 269.617 215.576 268.992 217.6C268.358 219.634 268.031 224.978 268.031 233.652V299.449H238.168V235.331C238.168 225.439 237.928 219.51 237.438 217.533C236.948 215.557 235.622 214.569 233.43 214.569C230.681 214.569 228.528 216.948 228.327 219.932C228.173 224.614 228.173 299.468 228.173 299.468H198.301V198.508ZM343.787 226.964C343.787 221.285 344.037 217.792 344.556 216.507C345.065 215.211 346.382 214.569 348.516 214.569C350.246 214.569 351.38 215.336 351.937 216.852C352.495 218.377 352.773 221.745 352.773 226.974V234.352H343.777V226.964H343.787V226.964ZM380.252 214.597C377.994 209.196 374.053 204.859 368.44 201.587C362.827 198.316 355.705 196.685 347.055 196.685C340 196.685 333.743 198.047 328.313 200.753C322.882 203.458 318.961 207.363 316.577 212.467C314.194 217.572 312.992 224.527 312.992 233.354V262.789C312.992 270.292 313.531 276.01 314.597 279.944C316.722 287.802 321.998 294.7 331.975 298.471C336.953 300.342 342.691 301.282 349.198 301.282C362.596 301.282 371.15 297.482 376.936 289.874C379.839 286.075 381.675 282.496 382.463 279.148C383.251 275.799 383.645 271.012 383.645 264.766V257.311H354.455V270.628C354.455 275.646 354.061 279.033 353.273 280.788C352.485 282.544 350.928 283.408 348.593 283.408C346.718 283.408 345.44 282.755 344.787 281.431C344.123 280.107 343.787 277.171 343.787 272.604V250.768H383.645V237.384C383.645 227.598 382.511 219.999 380.252 214.597V214.597ZM450.636 224.911V230.764H423.359V225.285C423.359 220.623 423.09 217.667 422.551 216.42C422.013 215.183 420.687 214.559 418.553 214.559C415.103 214.559 413.373 216.842 413.373 221.4C413.373 224.499 413.584 226.763 414.017 228.202C414.449 229.651 415.747 231.234 417.9 232.961C420.062 234.688 424.493 237.192 431.202 240.492C440.14 244.858 446.003 248.964 448.8 252.811C451.597 256.668 453 262.271 453 269.621C453 277.833 451.933 284.031 449.799 288.224C445.522 296.581 435.113 301.263 420.994 301.263C413.171 301.263 406.472 300.044 400.907 297.617C395.351 295.189 391.517 291.889 389.441 287.725C387.365 283.561 386.326 277.277 386.326 268.863V263.998H413.603V270.398C413.603 275.819 413.949 279.349 414.632 280.971C415.314 282.602 416.679 283.408 418.707 283.408C420.898 283.408 422.417 282.861 423.282 281.777C424.147 280.692 424.579 278.39 424.579 274.897C424.579 270.081 424.022 267.059 422.907 265.84C421.734 264.632 415.766 261.024 405.001 255.047C395.957 249.981 390.44 245.376 388.46 241.241C386.48 237.106 385.481 232.203 385.481 226.523C385.481 218.464 386.548 212.515 388.681 208.687C390.825 204.859 394.438 201.904 399.542 199.832C404.646 197.759 410.576 196.714 417.342 196.714C430.759 196.714 440.236 200.417 445.273 205.991C447.791 208.783 449.309 211.374 449.848 213.753C450.376 216.113 450.636 219.836 450.636 224.911V224.911Z" fill="#383737"/>
<path d="M99.728 176.096H92.4619V173.199C92.4619 171.155 92.1928 170.589 91.2989 170.589C90.4243 170.589 90.1744 170.973 90.1744 173.199V185.105C90.1744 186.909 90.6357 187.801 91.5296 187.801C92.5676 187.801 92.8655 187.034 92.8655 184.434V181.421H99.7184C99.6992 185.451 99.6703 186.938 98.2286 189.058C96.7966 191.188 94.5283 192.272 91.1355 192.272C86.7912 192.272 84.3307 190.718 83.2831 188.041C82.7449 186.698 82.4854 184.798 82.4854 182.342V175.175C82.4854 170.896 83.0716 169.121 85.8974 167.404C87.3006 166.55 89.021 166.118 91.0394 166.118C95.0473 166.118 98.0749 168.018 99.0168 170.608C99.4877 171.894 99.728 173.736 99.728 176.096V176.096ZM110.233 186.947C109.935 187.571 108.599 187.552 108.272 186.823C108.043 185.999 107.956 185.142 108.013 184.29C108.013 183.148 108.119 182.275 108.311 181.661C108.503 181.056 109.224 180.308 110.454 179.406V184.597C110.509 185.387 110.435 186.181 110.233 186.947V186.947ZM108.205 170.685C108.436 170.052 109.743 169.937 110.156 170.781C110.358 171.184 110.445 172.047 110.445 173.362C110.445 174.417 110.358 175.117 110.185 175.453C110.012 175.789 108.657 176.451 106.129 177.439C103.765 178.351 102.285 179.157 101.689 179.838C101.093 180.519 100.795 181.814 100.795 183.704V185.777C100.795 188.329 101.362 189.979 102.486 190.727C103.611 191.476 104.841 191.86 106.196 191.86C107.126 191.902 108.048 191.669 108.845 191.189C109.642 190.709 110.279 190.004 110.675 189.164V191.409H118.153V178.744C118.153 174.571 118.018 171.817 117.759 170.483C117.211 167.807 114.693 165.715 109.493 165.715C105.139 165.715 102.371 167.624 101.487 169.735C101.016 170.8 100.795 172.297 100.795 174.254V175.943H108.013V173.295C108.013 171.894 108.08 171.021 108.205 170.685V170.685ZM119.383 166.569H127.207L127.082 168.891C127.551 168.026 128.251 167.308 129.105 166.817C129.958 166.326 130.931 166.08 131.916 166.108C134.569 166.108 136.289 167.509 136.78 169.39C137.02 170.34 137.135 171.913 137.135 174.11V191.802H129.436V174.331C129.436 170.867 129.36 170.579 128.312 170.579C127.216 170.579 127.082 170.925 127.082 174.753V191.812H119.383V166.569V166.569ZM147.323 187.35C147.035 187.964 145.708 187.955 145.362 187.225C145.139 186.404 145.055 185.551 145.113 184.702C145.113 183.56 145.209 182.687 145.41 182.083C145.603 181.478 146.314 180.721 147.554 179.819V185.009C147.554 186.276 147.477 187.053 147.323 187.35V187.35ZM145.305 171.088C145.545 170.474 146.833 170.32 147.256 171.184C147.458 171.587 147.554 172.441 147.554 173.765C147.554 174.81 147.458 175.511 147.285 175.856C147.112 176.202 145.756 176.864 143.229 177.852C140.864 178.763 139.384 179.569 138.788 180.25C138.192 180.932 137.894 182.217 137.894 184.107V186.18C137.894 188.732 138.461 190.382 139.576 191.14C140.671 191.882 141.964 192.276 143.286 192.272C144.217 192.314 145.14 192.079 145.937 191.598C146.734 191.116 147.371 190.409 147.765 189.566V191.812H155.252V179.147C155.252 174.974 155.108 172.22 154.849 170.886C154.32 168.219 151.812 166.118 146.583 166.118C142.239 166.118 139.48 168.027 138.577 170.138C138.115 171.203 137.894 172.709 137.894 174.657V176.355H145.113C145.113 176.355 145.113 172.297 145.305 171.088V171.088ZM166.18 187.254C165.873 187.926 164.652 188.003 164.306 187.312C164.112 186.656 164.037 185.97 164.085 185.287V172.93C164.085 170.963 164.325 170.589 165.248 170.589C166.18 170.589 166.43 171.069 166.43 172.93V184.606C166.43 186.007 166.344 186.899 166.18 187.254ZM166.43 168.171C165.825 167.508 165.085 166.982 164.26 166.628C163.434 166.274 162.542 166.1 161.644 166.118C159.183 166.118 157.252 167.557 156.761 169.179C156.455 170.531 156.329 171.918 156.387 173.304V185.115C156.387 188.828 156.685 190.065 158.443 191.322C159.351 191.959 160.438 192.292 161.548 192.272C163.326 192.272 164.95 191.514 166.43 189.989V191.812H174.129V161.023H166.43V168.171V168.171ZM175.609 161.023H183.529V165.034H175.609V161.023ZM175.609 166.569H183.529V191.812H175.609V166.569ZM194.649 187.35C194.342 187.955 193.025 187.964 192.688 187.225C192.46 186.405 192.372 185.552 192.429 184.702C192.429 183.56 192.535 182.687 192.727 182.083C192.929 181.478 193.64 180.721 194.87 179.819V185.009C194.926 185.796 194.851 186.587 194.649 187.35V187.35ZM192.621 171.088C192.852 170.464 194.149 170.33 194.572 171.184C194.764 171.587 194.861 172.441 194.861 173.765C194.861 174.81 194.774 175.511 194.601 175.856C194.428 176.202 193.063 176.864 190.535 177.852C188.181 178.763 186.701 179.569 186.095 180.25C185.499 180.932 185.201 182.217 185.201 184.107V186.18C185.201 188.732 185.768 190.382 186.893 191.14C187.983 191.882 189.273 192.276 190.593 192.272C191.524 192.314 192.447 192.079 193.244 191.598C194.041 191.116 194.677 190.409 195.072 189.566V191.812H202.559V179.147C202.559 174.974 202.425 172.22 202.165 170.886C201.617 168.219 199.099 166.118 193.899 166.118C189.555 166.118 186.787 168.018 185.884 170.138C185.432 171.193 185.211 172.709 185.211 174.657V176.355H192.429V173.707C192.429 172.297 192.496 171.424 192.621 171.088V171.088ZM203.934 166.569H211.757L211.632 168.891C212.102 168.027 212.803 167.309 213.656 166.818C214.509 166.327 215.482 166.081 216.467 166.108C219.119 166.108 220.84 167.509 221.33 169.39C221.57 170.34 221.695 171.913 221.695 174.11V191.802H214.006V174.331C214.006 170.867 213.91 170.579 212.882 170.579C211.786 170.579 211.642 170.925 211.642 174.753V191.812H203.943V166.569H203.934V166.569ZM303.103 314.216C303.103 313.074 303.535 312.517 304.372 312.517C305.304 312.517 305.823 313.419 305.823 314.292C305.823 315.319 305.39 316.403 304.525 317.526C303.632 316.653 303.12 315.463 303.103 314.216V314.216ZM309.485 320.721C310.238 320.008 310.839 319.149 311.25 318.198C311.662 317.246 311.875 316.221 311.878 315.185C311.878 311.232 309.071 308.373 304.506 308.373C299.412 308.373 296.346 311.222 296.346 315.501C296.346 317.986 297.355 319.963 299.393 321.411C296.538 322.611 295.126 324.338 295.126 327.667C295.126 331.84 297.624 335.256 302.103 335.256C304.237 335.256 306.496 334.469 308.889 332.896L309.821 334.613H316.924L314.223 329.48L316.395 328.108V322.918L312.205 325.614L309.485 320.721V320.721ZM304.102 330.248C302.939 330.248 302.324 329.519 302.324 328.079C302.324 327.082 302.805 326.141 303.756 325.278L306.246 329.423C305.628 329.902 304.883 330.189 304.102 330.248V330.248ZM339.088 318.907H331.831V316C331.831 313.976 331.552 313.4 330.668 313.4C329.774 313.4 329.544 313.765 329.544 316V327.907C329.544 329.72 330.014 330.612 330.899 330.612C331.937 330.612 332.235 329.893 332.235 327.245V324.242H339.097C339.078 328.262 339.03 329.758 337.607 331.879C336.175 333.999 333.907 335.083 330.505 335.083C326.17 335.083 323.709 333.529 322.652 330.852C322.124 329.519 321.864 327.619 321.864 325.153V317.986C321.864 313.707 322.45 311.932 325.267 310.215C326.67 309.351 328.39 308.929 330.409 308.929C334.436 308.929 337.454 310.838 338.396 313.419C338.847 314.715 339.088 316.537 339.088 318.907V318.907ZM349.583 330.113C349.285 330.756 348.084 330.804 347.776 330.065C347.58 329.305 347.505 328.518 347.555 327.734V316.346C347.555 313.745 347.795 313.4 348.689 313.4C349.602 313.4 349.795 313.745 349.795 316.346V327.983C349.847 328.7 349.775 329.421 349.583 330.113V330.113ZM357.138 314.254C356.855 313.316 356.381 312.447 355.744 311.702C354.398 310.052 351.89 308.929 348.43 308.929C344.326 308.929 341.635 310.666 340.625 313.304C340.116 314.619 339.866 316.451 339.866 318.802V325.268C339.866 327.408 340.001 329.02 340.279 330.085C341.125 333.289 343.643 335.083 348.766 335.083C351.803 335.083 354.187 334.229 355.696 332.397C357.195 330.555 357.503 328.972 357.503 324.434V318.245C357.503 316.461 357.378 315.127 357.138 314.254V314.254ZM360.242 306.012H367.96V309.994H370.036V313.985H367.96V327.494C367.96 329.154 368.046 330.085 368.21 330.267C368.392 330.459 369.104 330.555 370.363 330.555V334.623H367.249C363.741 334.623 362.654 334.44 361.511 333.395C360.969 332.924 360.594 332.292 360.444 331.591C360.256 330.006 360.188 328.408 360.242 326.813V313.995H358.579V310.004H360.242V306.012Z" fill="#383737"/>
<path d="M370.843 306.012H378.561V309.993H380.637V313.985H378.561V327.493C378.561 329.153 378.647 330.084 378.82 330.266C378.993 330.458 379.704 330.554 380.963 330.554V334.622H377.859C374.351 334.622 373.265 334.44 372.121 333.394C371.579 332.924 371.205 332.291 371.054 331.59C370.866 330.005 370.799 328.408 370.852 326.812V313.994H369.189V310.003H370.852V306.012H370.843Z" fill="#383737"/>
<path d="M389.066 330.16C388.759 330.774 387.432 330.774 387.106 330.036C386.882 329.211 386.798 328.355 386.856 327.503C386.856 326.361 386.952 325.488 387.144 324.884C387.336 324.279 388.057 323.512 389.287 322.619V327.81C389.338 328.6 389.263 329.393 389.066 330.16V330.16ZM387.038 313.908C387.259 313.284 388.566 313.131 388.989 314.004C389.191 314.397 389.278 315.261 389.278 316.585C389.328 317.292 389.24 318.002 389.018 318.676C388.836 319.021 387.49 319.683 384.962 320.672C382.598 321.593 381.118 322.389 380.522 323.07C379.926 323.751 379.628 325.037 379.628 326.927V329C379.628 331.552 380.185 333.202 381.31 333.96C382.403 334.703 383.697 335.098 385.02 335.092C385.951 335.134 386.873 334.899 387.671 334.418C388.468 333.936 389.104 333.229 389.499 332.386V334.631H396.986V321.967C396.986 317.793 396.842 315.04 396.582 313.706C396.054 311.039 393.516 308.947 388.317 308.947C383.963 308.947 381.223 310.847 380.301 312.967C379.849 314.023 379.638 315.539 379.638 317.486V319.185H386.856C386.834 317.424 386.895 315.663 387.038 313.908V313.908ZM408.433 326.649C408.154 327.416 406.866 327.484 406.568 326.754C406.386 326.037 406.318 325.296 406.367 324.557V316.076C406.367 313.936 406.693 313.399 407.578 313.399C408.491 313.399 408.664 313.764 408.664 316.076V323.886C408.664 325.325 408.587 326.246 408.433 326.649V326.649ZM408.664 311.279C408.114 310.539 407.396 309.94 406.569 309.531C405.742 309.122 404.829 308.916 403.906 308.928C400.369 308.928 398.668 310.895 398.668 315.673V324.845C398.668 326.524 398.831 327.81 399.158 328.721C399.821 330.525 401.638 331.753 404.425 331.753C406.063 331.73 407.63 331.085 408.808 329.949V331.849C408.808 334.037 408.51 334.507 407.357 334.507C406.549 334.507 406.136 333.95 406.136 332.828H398.678C398.774 337.692 401.974 338.978 406.886 338.978C410.874 338.978 413.46 338.057 414.93 336.349C415.573 335.668 416.018 334.826 416.218 333.912C416.343 333.144 416.401 331.446 416.401 328.827V309.389H409.24L408.664 311.279V311.279ZM425.31 316.498C425.31 313.639 425.426 313.399 426.493 313.399C427.348 313.399 427.55 313.85 427.55 316.498V318.34H425.31V316.498ZM434.432 313.409C433.297 310.703 430.433 308.928 426.137 308.928C422.59 308.928 419.717 310.329 418.515 312.872C417.919 314.148 417.621 315.884 417.621 318.091V325.459C417.621 327.33 417.756 328.76 418.015 329.738C418.299 330.809 418.845 331.793 419.603 332.602C420.361 333.41 421.308 334.019 422.36 334.372C423.609 334.842 425.041 335.082 426.666 335.082C430.02 335.082 432.144 334.123 433.605 332.223C435.047 330.333 435.277 329.086 435.277 325.949V324.087H427.982V327.416C427.982 329.911 427.694 330.611 426.521 330.611C425.56 330.611 425.32 330.189 425.32 327.906V322.447H435.277V319.098C435.268 316.652 434.989 314.752 434.432 313.409V313.409ZM452.222 315.98V317.438H445.408C445.408 317.438 445.408 314.906 445.206 313.85C445.071 313.543 444.744 313.39 444.206 313.39C443.332 313.39 442.909 313.965 442.909 315.097C442.909 316.661 442.957 317.131 444.043 317.995C444.581 318.427 445.686 319.05 447.368 319.875C449.598 320.969 451.069 321.996 451.761 322.955C452.462 323.915 452.808 325.315 452.808 327.157C452.808 329.211 452.549 330.755 452.011 331.811C450.944 333.902 448.329 335.073 444.812 335.073C440.89 335.073 437.968 333.758 436.921 331.676C436.402 330.64 436.142 329.076 436.142 326.966V325.757H442.966V327.359C442.966 330.064 443.226 330.611 444.245 330.611C445.331 330.611 445.706 330.228 445.706 328.481C445.706 327.282 445.561 326.524 445.283 326.217C444.994 325.91 443.495 325.018 440.804 323.512C438.555 322.245 437.171 321.094 436.671 320.058C436.148 318.905 435.895 317.648 435.931 316.383C435.931 312.363 436.882 310.751 439.439 309.705C440.717 309.187 442.197 308.928 443.889 308.928C447.253 308.928 449.617 309.859 450.876 311.25C452.136 312.641 452.222 313.457 452.222 315.98V315.98Z" fill="#383737"/>
</g>
<defs>
<clipPath id="clip0">
<rect width="406" height="178" fill="white" transform="translate(47 161)"/>
</clipPath>
</defs>
</svg>
