<svg width="500" height="500" viewBox="0 0 500 500" fill="none" xmlns="http://www.w3.org/2000/svg">
<rect width="500" height="500" fill="#F9F4EE"/>
<g clip-path="url(#clip0)">
<path d="M162.076 316.745H164.451L164.902 315.101H168.294L168.732 316.745H171.1L168.082 307.566H165.102L162.076 316.745ZM181.721 307.566H184.019L187.321 312.294C187.411 312.41 187.688 312.949 188.119 313.913C188.041 313.312 187.996 312.707 187.984 312.101V307.566H190.269V316.752H187.984L184.682 312.011C184.378 311.495 184.112 310.959 183.884 310.405C183.967 311.125 184.019 311.729 184.019 312.217V316.752H181.721V307.566ZM202.647 316.745H205.08C206.534 316.745 207.751 316.694 208.832 315.885C209.933 315.063 210.519 313.791 210.519 312.159C210.519 310.515 209.933 309.243 208.832 308.433C207.68 307.585 206.373 307.56 204.745 307.56H202.64V316.745H202.647ZM235.461 311.446H240.147C240.16 311.639 240.16 311.819 240.16 311.998C240.16 315.172 238.447 316.97 235.609 316.97C234.983 317 234.359 316.894 233.778 316.659C233.198 316.424 232.676 316.065 232.249 315.609C231.396 314.665 230.927 313.437 230.936 312.165C230.936 309.378 232.918 307.361 235.609 307.361C236.395 307.334 237.173 307.517 237.866 307.889C238.558 308.262 239.138 308.811 239.548 309.48L237.482 310.521C236.993 309.814 236.381 309.468 235.609 309.468C234.219 309.468 233.311 310.495 233.311 312.268C233.311 314.028 234.206 315.082 235.609 315.082C236.845 315.082 237.714 314.362 237.836 313.373H235.461V311.446V311.446ZM251.462 307.566H253.87V316.752H251.462V307.566ZM266.775 307.566H272.137V309.583H269.105V311.176H271.963V313.135H269.105V316.745H266.775V307.566ZM285.203 309.737H283.253V307.566H289.542V309.737H287.585V316.745H285.203V309.737ZM304.404 315.037C305.067 315.037 305.492 314.632 305.492 314.093C305.492 313.36 305.016 313.142 304.024 312.872C302.447 312.435 301.675 311.767 301.675 310.328C301.675 308.62 302.859 307.348 304.694 307.348C305.672 307.348 306.528 307.618 307.288 308.17L306.541 309.969C306.089 309.529 305.492 309.268 304.861 309.236C304.275 309.236 303.896 309.57 303.896 310.007C303.896 310.662 304.494 310.804 305.286 311.022C306.844 311.459 307.7 312.063 307.7 313.759C307.7 315.673 306.399 316.996 304.346 316.996C303.761 317.005 303.182 316.89 302.645 316.657C302.109 316.425 301.629 316.08 301.237 315.647L302.312 313.784C303.027 314.613 303.709 315.037 304.404 315.037V315.037ZM94.768 242.971C90.4747 244.847 87.2564 246.588 84.5723 262.916C81.3539 267.464 59.4757 283.851 54.97 285.97C51.1724 287.75 46.9177 287.499 45.8364 285.726C45.1669 284.634 41.8199 285 42.0065 287.422C42.0645 288.238 42.3091 289.606 44.0727 290.152C43.8217 290.075 50.7475 291.816 57.6219 288.071C72.3748 280.041 82.564 268.267 81.6243 272.012C79.056 281.474 73.6492 292.587 73.5656 292.747C73.459 292.949 73.4037 293.174 73.4046 293.402C73.4046 293.846 73.0377 295.066 74.383 295.169C76.1274 295.304 78.1356 295.034 78.9402 292.895C81.3797 286.394 93.693 279.11 98.7844 278.172C98.7844 278.172 102.273 277.234 101.089 281.217C100.741 282.386 100.246 283.677 100.246 284.827C100.246 285.778 100.529 287.159 101.462 287.673C104.146 289.144 105.981 287.711 110.718 283.658C112.295 282.309 113.981 281.416 116.215 280.176C118.094 279.104 116.974 281.731 116.73 284.005C116.35 287.538 117.419 290.049 120.109 289.812C124.666 289.413 127.486 285.88 128.425 281.512C128.824 279.637 128.425 278.031 130.305 277.767C132.854 277.099 137.681 278.301 137.012 280.844L135.325 285.745C135.313 285.816 135.325 285.893 135.306 285.964C134.997 287.004 135.165 288.315 136.207 288.61C138.087 289.144 139.825 288.88 140.501 287.139C142.489 281.981 144.794 281.654 146.268 281.654C147.06 281.654 148.276 280.851 147.877 283.658C147.877 283.658 146.403 288.206 148.276 288.61C150.947 289.182 151.7 288.334 152.26 287.576C152.267 287.563 154.899 282.868 156.47 281.853C156.483 281.866 158.407 280.703 158.201 282.72C157.487 289.696 168.339 286.054 169.459 285.347C171.59 284.589 170.978 286.054 173.514 288.135C175.342 289.246 179.648 292.041 190.172 286.915C202.067 281.121 201.411 281.911 202.576 281.962C202.576 281.962 205.801 282.54 206.631 281.506C207.242 280.748 206.921 279.508 206.122 279.123C203.387 277.806 199.325 279.727 191.672 283.375C184.856 286.619 179.043 286.818 177.164 285.758C175.864 285.026 174.879 284.005 174.583 282.932C182.21 280.992 182.056 275.757 182.075 275.635C182.345 273.894 181.631 273.162 179.391 272.956C174.203 272.487 170.528 281.288 170.27 281.654C169.06 283.394 166.382 283.793 164.908 283.658C163.389 283.523 162.224 282.335 162.224 280.279C162.224 277.369 160.538 277.298 159.675 277.099C157.468 276.585 154.848 278.435 153.509 279.643C152.17 280.851 152.273 277.909 150.825 277.369C148.115 276.361 145.727 277.639 142.779 278.705C141.17 279.643 141.975 277.633 139.831 276.566C136.439 274.87 130.311 275.628 127.093 275.763C124.274 271.344 116.408 275.506 110.467 280.048C108.188 281.789 105.105 283.26 105.504 281.121C105.755 279.797 106.148 277.864 106.174 276.701C106.219 274.736 105.099 273.862 103.895 273.778C97.9992 273.354 89.683 278.84 85.2546 281.789C81.2316 284.332 87.5524 271.537 88.3377 265.73C89.3354 264.766 100.986 250.448 100.406 245.123C99.9044 240.569 94.768 242.971 94.768 242.971V242.971Z" fill="#383737"/>
<path d="M95.1672 247.791C95.1672 247.791 97.1754 250.065 90.0693 257.028C90.4748 253.951 93.1589 244.984 95.1672 247.791Z" fill="#F5F4F3"/>
<path d="M226.102 273.965C226.102 273.985 226.411 275.674 225.111 277.453C225.04 277.543 217.142 287.313 219.711 291.309C220.015 291.786 220.416 292.195 220.887 292.51C221.357 292.825 221.888 293.039 222.446 293.14C226.437 293.891 232.784 289.009 239.388 284.307C243.765 281.192 249.654 276.368 250.427 277.678C250.484 277.781 250.735 278.989 249.577 281.455C248.837 283.029 248.264 285.618 249.693 286.652C250.922 287.551 253.136 286.774 255.196 284.262C259 280.993 264.098 279.066 265.179 278.989C265.186 279.014 266.724 278.68 266.183 280.376C265.932 281.173 265.855 284.519 267.574 285.618C269.505 286.851 272.556 286.408 274.68 284.616C275.272 284.115 275.324 282.823 274.815 282.232C274.313 281.641 273.38 281.519 272.826 282.065C272.125 282.766 271.095 283.119 270.657 282.534C270.194 281.918 270.715 281.372 271.108 279.612C271.603 277.376 270.869 276.181 270.033 275.796C266.557 274.209 261.002 277.216 256.522 279.605C256.567 279.49 254.823 280.517 255.054 279.143C255.209 278.218 255.621 277.325 255.621 275.841C255.642 275.479 255.591 275.116 255.469 274.774C255.348 274.432 255.158 274.117 254.913 273.85C254.166 273.085 252.66 273.349 251.212 273.856C247.627 275.122 243.23 278.436 238.403 281.693C232.121 285.926 226.18 290.545 224.628 287.93C224.281 287.333 224.551 284.461 227.1 280.839C229.533 277.376 229.559 275.635 229.572 275.52C229.726 274.055 228.426 273.047 227.654 272.963C226.881 272.88 226.192 273.195 226.102 273.965V273.965ZM335.461 273.028C330.808 272.128 325.794 276.059 323.013 278.218C322.318 278.757 322.942 277.44 323.122 275.982C323.129 275.925 323.322 275.057 322.498 274.646C322.022 274.409 320.702 274.376 320.329 274.755C316.917 278.147 308.344 281.693 303.246 281.224C301.495 281.07 301.212 280.299 301.006 279.605C300.8 278.899 301.083 278.68 301.392 278.603C306.413 276.984 307.558 273.786 307.571 273.747C308.189 271.589 307.958 269.97 305.486 270.047C302.782 270.131 299.751 271.614 298.148 274.826C297.614 275.905 296.835 276.599 296.294 276.676C288.57 277.447 287.334 277.601 287.875 275.597C291.03 264.945 294.481 254.383 298.225 243.922C298.998 242.458 298.85 241.289 298.071 241.225C297.144 241.147 296.507 241.893 296.217 242.612C295.811 243.608 289.561 257.335 284.946 273.053C284.406 275.057 284.335 275.256 283.17 274.441C282.397 273.901 282.198 272.064 282.166 271.974C282.02 271.519 281.711 271.133 281.297 270.891C280.884 270.649 280.395 270.568 279.926 270.664C277.918 271.049 277.377 272.437 277.615 274.132C277.718 274.91 278.149 276.528 281.039 277.884C282.404 278.526 282.713 279.22 282.404 280.068C281.323 283.536 279.63 287.647 279.469 291.47C279.392 293.319 280.318 293.943 281.709 294.013C283.254 294.09 284.026 293.782 284.103 292.394C284.361 287.77 285.165 285.598 286.498 280.839C286.807 279.605 289.047 281.686 295.226 279.836C295.226 279.901 296.365 278.989 296.307 280.299C296.23 282.065 296.539 283.768 298.618 284.847C303.922 287.59 310.59 283.228 316.538 280.376C318.778 278.911 317.928 282.38 317.156 284.384C317.053 284.641 316.396 286.125 316.692 287.005C317.078 288.161 319.009 287.776 319.859 286.62C322.427 283.125 329.115 274.588 334.219 275.912C334.798 276.059 334.683 276.683 333.575 277.543C333.209 277.826 332.906 278.295 333.292 278.834C333.46 279.072 334.026 279.74 334.219 279.991C334.683 280.614 335.854 280.479 336.459 279.991C337.695 278.989 339.24 277.216 338.776 275.443C338.454 274.235 337.238 273.368 335.461 273.028V273.028ZM400.156 274.364C400.145 273.511 399.8 272.697 399.195 272.094C398.59 271.492 397.773 271.149 396.919 271.139C393.655 271.036 389.201 272.584 385.719 275.905C385.024 276.753 384.715 276.599 385.101 275.212C385.487 273.824 385.024 273.13 384.342 272.88C383.299 272.494 382.655 272.231 382.011 272.899C376.379 278.757 370.825 275.295 370.664 275.134C369.119 273.593 367.033 272.822 365.888 272.905C363.352 273.002 360.552 276.085 357.147 278.937C352.802 282.566 349.429 284.455 347.266 284.995C346.352 285.226 345.593 284.461 345.567 283.376C345.528 281.744 346.133 279.168 348.579 275.982C350.588 273.362 350.201 272.128 349.468 271.274C348.978 270.702 348.328 270.336 347.64 270.651C346.951 270.966 346.642 271.788 346.925 272.488C346.938 272.526 347.266 272.983 345.644 274.678C344.518 275.854 339.388 282.155 340.508 286.517C340.772 287.532 341.402 288.412 342.419 288.656C347.73 289.934 352.898 285.463 357.147 282.997C357.764 282.611 358.498 282.425 358.498 282.875C358.498 285.38 359.361 286.729 360.037 287.391C360.59 287.963 361.285 288.379 362.052 288.595C362.818 288.812 363.629 288.822 364.401 288.624C368.494 287.545 369.962 283.614 370.889 279.682C371.198 278.385 371.822 278.603 372.202 278.911C376.296 279.914 378.458 278.526 379.231 278.526C380.467 278.449 379.926 280.145 378.999 282.072C378.31 283.305 377.461 284.41 377.416 284.494C375.987 287.005 376.759 286.928 378.767 286.928C381.78 286.928 382.687 284.262 382.707 284.23C385.519 280.228 389.896 274.717 394.441 274.37C395.445 274.293 396.134 274.903 395.599 275.912C394.904 277.222 395.825 278.507 397.916 278.224C399.616 277.986 400.156 276.137 400.156 274.364V274.364ZM416.068 263.27C414.195 263.232 405.563 264.439 405.563 271.434C405.563 274.447 407.726 276.059 410.816 277.832C412.618 278.867 415.064 280.761 413.982 281.224C407.726 283.626 403.285 285.887 400.549 287.853C399.79 288.399 396.951 290.885 396.584 292.716C396.063 295.324 399.384 295.349 403.169 294.167C415.289 290.39 418.07 284.532 418.044 282.823C417.992 281.301 452.512 271.974 455.216 274.132C457.205 275.725 458.029 274.865 458.614 274.184C459.464 273.207 458.737 271.98 457.996 271.743C449.809 269.122 429.965 276.599 417.439 280.042C416.435 278.128 414.53 276.734 412.798 275.488C410.867 274.094 409.831 272.848 409.966 271.28C410.275 267.735 414.06 265.885 415.682 265.885C418.018 265.885 417.645 264.658 417.651 264.6C417.761 263.572 416.84 263.283 416.068 263.27ZM353.8 265.595C354.327 267.105 353.928 269.019 351.553 268.827C350.214 268.724 349.307 267.683 349.307 266.09C349.307 264.491 350.304 262.853 351.553 262.788C352.898 262.731 353.304 264.163 353.8 265.595ZM232.571 267.066C233.099 268.576 232.7 270.484 230.325 270.298C228.986 270.195 228.078 269.154 228.078 267.561C228.078 265.962 229.076 264.33 230.325 264.266C231.664 264.202 232.069 265.64 232.571 267.066ZM204.971 224.183C204.971 224.183 202.937 224.62 202.499 228.968C201.83 235.63 209.328 239.407 217.316 241.584C225.304 243.755 226.907 241.147 227.049 242.747C227.19 244.34 220.509 245.503 212.811 244.777C205.112 244.051 201.913 241.295 200.317 239.124C198.721 236.946 198.862 238.835 198.862 238.835L198.721 243.621C199.158 246.665 202.621 251.014 207.436 251.014C212.083 251.014 212.424 249.884 213.828 250.584C217.896 252.614 226.463 252.035 228.207 251.162C230.55 249.993 232.854 249.569 236.781 250.584C240.707 251.599 243.32 249.71 243.32 249.71C243.32 249.71 253.201 250.147 256.104 249.569C257.842 249.222 258.723 249.967 260.609 251.02C261.192 251.428 261.853 251.71 262.55 251.851C263.248 251.991 263.966 251.987 264.662 251.837C265.357 251.688 266.014 251.396 266.592 250.982C267.169 250.567 267.655 250.038 268.018 249.427C274.12 240.004 272.524 230.292 271.217 225.795C269.91 221.299 270.342 217.239 270.638 211.734C270.927 206.223 274.416 203.904 273.547 196.074C272.807 189.438 271.352 192.444 272.53 189.695C275.143 183.605 267.303 185.635 266.138 184.62C262.502 181.441 254.997 187.177 248.418 185.924C234.76 183.316 221.925 183.226 219.505 184.762C216.306 186.791 213.113 185.192 211.517 183.599C210.551 182.635 207.449 183.169 207.449 183.169L200.62 184.909C200.62 184.909 199.751 185.635 200.62 187.376C201.488 189.117 202.364 193.029 201.637 194.622C200.916 196.221 200.916 205.208 201.637 206.801C202.364 208.394 202.512 210.282 201.785 211.297C201.057 212.312 200.883 214.246 201.637 216.661C203.078 221.279 206.136 223.168 204.971 224.183V224.183Z" fill="#383737"/>
<path d="M211.22 203.886C211.22 203.886 213.099 195.561 223.424 195.041C231.997 194.604 238.826 207.946 243.622 209.25C245.508 209.539 238.247 192.285 223.424 192.285C205.542 192.285 200.033 209.539 208.317 211.421C211.477 212.147 210.055 208.093 211.22 203.886Z" fill="#F5F4F3"/>
<path d="M218.191 210.842C218.191 210.842 213.833 216.353 220.225 219.976C220.225 219.976 222.259 220.991 220.225 222.153C218.191 223.316 216.015 230.71 221.828 233.459C227.634 236.215 231.56 234.037 231.56 234.037C231.56 234.037 233.33 233.035 232.287 235.778C231.122 238.823 220.083 239.259 216.884 235.919C213.01 231.879 212.089 225.192 214.271 223.014C216.453 220.837 209.914 221.415 210.931 213.739C211.819 207.026 216.595 207.36 217.612 207.938C218.622 208.529 218.912 210.122 218.191 210.842Z" fill="#F5F4F3"/>
<path d="M223.418 229.548C223.939 229.811 225.394 229.541 225.452 230.71C225.593 233.614 229.661 234.192 230.678 232.592C232.577 229.605 227.132 227.871 224.428 228.096C222.69 228.244 223.128 229.406 223.418 229.548ZM230.395 227.087C230.395 227.087 227.634 224.91 230.105 223.747C231.296 223.188 233.452 224.184 232.867 227.659C232.564 229.47 232.719 231.571 234.901 231.141C237.076 230.704 239.11 223.31 233.015 221.717C226.913 220.124 225.465 225.629 228.219 227.518C230.974 229.406 231.406 228.391 230.395 227.087V227.087Z" fill="#F5F4F3"/>
<path d="M227.627 217.368C227.627 217.368 230.247 213.167 236.491 216.064C242.741 218.967 247.678 232.155 237.656 239.407C237.656 239.407 236.639 241.874 239.979 239.992C243.32 238.103 248.553 225.635 243.03 217.085C236.059 206.275 221.532 211.285 224.872 216.796C226.063 218.749 227.627 217.368 227.627 217.368V217.368ZM246.809 232.155C246.809 232.155 249.943 227.556 247.826 220.991C246.371 216.494 251.025 216.931 251.166 219.687C251.308 222.443 251.894 228.095 247.826 232.733C247.826 232.74 245.94 234.622 246.809 232.155V232.155Z" fill="#F5F4F3"/>
<path d="M250.587 207.367C250.587 207.367 260.538 211.767 256.837 227.376C254.224 238.393 240.855 244.193 240.855 244.193C240.855 244.193 238.383 245.06 241.286 245.06C244.189 245.06 256.457 240.686 260.751 226.355C265.835 209.391 255.807 197.359 249.564 201.567C245.129 204.554 250.587 207.367 250.587 207.367V207.367ZM121.718 284.861C119.44 283.653 122.523 279.24 123.862 279.645C126.147 279.51 124.473 286.319 121.718 284.861ZM177.968 276.69C179.288 276.896 177.614 279.927 174.924 279.426C175.387 277.435 176.752 276.491 177.968 276.69ZM165.417 313.323L166.299 310.292L166.601 309.058L166.891 310.292L167.786 313.323H165.417V313.323ZM205.009 314.692V309.617H205.408C207.204 309.617 208.099 310.336 208.099 312.161C208.099 313.959 207.23 314.692 205.408 314.692H205.009ZM304.713 273.517C305.022 274.596 302.628 276.215 301.392 276.06C301.392 273.979 304.365 272.309 304.713 273.517ZM367.419 280.917C367.265 282.227 366.138 283.518 364.87 284.154C363.171 285.002 362.321 283.692 362.341 282.683C362.347 281.893 362.662 280.711 363.325 279.606C363.789 278.835 365.952 278.142 366.956 278.296C367.445 278.367 367.619 279.214 367.419 280.917ZM413.75 283.916C415.063 283.531 412.978 285.998 410.011 287.816C407.359 289.441 405.563 290.539 404.79 290.083C404.018 289.543 405.563 287.462 413.75 283.916Z" fill="#F5F4F3"/>
<path d="M426.038 288.252C427.535 288.252 428.748 287.042 428.748 285.548C428.748 284.055 427.535 282.844 426.038 282.844C424.541 282.844 423.328 284.055 423.328 285.548C423.328 287.042 424.541 288.252 426.038 288.252Z" fill="#383737"/>
<path d="M426.044 287.809C427.295 287.809 428.31 286.797 428.31 285.548C428.31 284.299 427.295 283.287 426.044 283.287C424.793 283.287 423.778 284.299 423.778 285.548C423.778 286.797 424.793 287.809 426.044 287.809Z" fill="#F5F4F3"/>
<path d="M425.002 287.045H425.542V285.819H426.115C426.521 285.819 426.546 285.986 426.546 286.41C426.546 286.737 426.566 286.898 426.604 287.045H427.216V286.962C427.093 286.911 427.093 286.795 427.093 286.339C427.093 285.754 426.978 285.658 426.759 285.542C427.023 285.44 427.164 285.144 427.164 284.791C427.164 284.521 427.035 283.904 426.334 283.904H424.995V287.045H425.002Z" fill="#383737"/>
<path d="M425.542 285.283V284.441H426.231C426.553 284.441 426.617 284.685 426.617 284.853C426.617 285.161 426.475 285.276 426.192 285.276H425.542V285.283Z" fill="#F5F4F3"/>
</g>
<defs>
<clipPath id="clip0">
<rect width="417" height="134" fill="white" transform="translate(42 183)"/>
</clipPath>
</defs>
</svg>
