<svg width="1168" height="846" viewBox="0 0 1168 846" fill="none" xmlns="http://www.w3.org/2000/svg">
<path d="M613.243 111.559C615.109 112.56 617.278 113.503 619.621 114.572C620.215 114.851 620.825 115.121 621.419 115.4C622.045 115.659 622.67 115.918 623.323 116.183C624.585 116.717 625.912 117.28 627.281 117.84C628.655 118.372 630.072 118.899 631.511 119.46C632.965 120.011 634.431 120.579 635.964 121.077C637.466 121.596 639.021 122.128 640.572 122.687C642.132 123.191 643.723 123.675 645.321 124.203C646.923 124.703 648.542 125.193 650.176 125.672C651.809 126.151 653.417 126.625 655.055 127.077C658.352 127.943 661.629 128.848 664.875 129.603C668.108 130.441 671.341 131.108 674.43 131.799C674.956 131.908 675.493 132.033 676.018 132.141C676.045 132.147 676.06 132.136 676.098 132.159C676.42 132.234 676.716 132.303 677.011 132.372C677.746 132.557 678.857 132.83 680.261 133.1C681.35 133.34 682.401 133.556 683.43 133.739C683.687 133.785 683.917 133.824 684.185 133.887C694.972 135.889 714.379 138.441 730.802 134.798C754.965 129.394 760.435 126.468 758.706 109.677C757.016 92.9094 751.152 92.5484 748.377 78.4126C743.966 55.9494 751.899 40.1492 734.478 15.8874C732.073 12.5419 729.667 9.77581 727.179 7.49977C726.539 6.91247 725.89 6.37964 725.241 5.84677C725.203 5.82379 725.165 5.80094 725.116 5.76123C706.704 -10.714 636.364 11.5982 604.462 49.0238C643.656 14.4837 722.753 -0.148081 709.679 25.7249C683.396 45.6098 630.932 61.2805 606.054 67.4514C612.875 98.1114 596.153 106.012 596.085 106.081C596.137 106.022 596.261 105.867 596.447 105.67C596.69 105.387 597.079 104.983 597.48 104.425C597.696 104.136 597.943 103.826 598.184 103.472C598.409 103.129 598.67 102.737 598.947 102.335C599.463 101.508 600.013 100.561 600.532 99.466C600.816 98.9383 601.029 98.3373 601.296 97.7488C601.513 97.1207 601.784 96.5052 601.963 95.8541C602.407 94.5434 602.742 93.1366 603.021 91.6461C603.269 90.1766 603.477 88.6129 603.508 87.0223C603.555 85.4213 603.543 83.8351 603.355 82.2217C603.167 80.6084 602.916 79.0369 602.506 77.4992C602.123 75.9677 601.646 74.4991 601.069 73.1207C600.482 71.7255 599.834 70.4435 599.151 69.2807C597.534 66.472 595.156 64.1224 592.428 62.441C583.761 57.0438 570.554 58.975 565.151 67.4597C561.021 73.9358 561.282 82.8907 562.551 90.4966C562.813 92.0847 563.265 93.6184 563.817 95.0618C564.098 95.7919 564.4 96.4842 564.732 97.1556C565.097 97.806 565.398 98.4982 565.819 99.0628C566.23 99.6818 566.577 100.271 567.018 100.798C567.432 101.319 567.826 101.877 568.254 102.316C569.08 103.286 569.923 104.076 570.71 104.783C571.486 105.472 572.215 106.024 572.793 106.484C573.869 107.215 574.542 107.683 574.705 107.791C574.554 107.7 555.106 103.073 556.635 70.5112C503.585 52.1091 471.416 38.1014 453.341 25.7486C435.485 0.183595 517.701 15.011 561.28 48.7421C524.487 11.8822 450.847 -11.3982 434.911 5.7345C434.88 5.75547 434.833 5.78699 434.801 5.80796C434.045 6.40953 433.274 7.09283 432.526 7.8095C431.893 8.42557 431.25 9.09618 430.618 9.7834C414.19 28.0175 415.112 42.2308 417.265 56.4197C419.434 70.598 419.01 83.5363 413.849 91.3279C408.699 99.1363 407.679 112.714 410.656 119.784C413.617 126.865 433.257 138.946 494.382 132.517C496.252 132.259 498.2 131.949 500.202 131.651C503.079 131.204 506.039 130.677 509.069 130.152C512.066 129.577 515.127 129.032 518.153 128.364C521.197 127.758 524.232 127.036 527.209 126.33C528.687 125.995 530.152 125.573 531.593 125.215C533.038 124.83 534.478 124.473 535.874 124.048C537.265 123.651 538.618 123.231 539.978 122.854C541.316 122.445 542.589 122.006 543.857 121.594C546.416 120.804 548.72 119.87 550.916 119.08C553.057 118.207 555.001 117.344 556.734 116.574C558.411 115.72 559.884 115.003 561.093 114.365C563.128 113.128 564.386 112.36 564.664 112.199C564.361 112.425 543.607 132.509 478.452 148.124C473.627 153.18 468.111 159.276 462.45 166.146C453.497 177 444.223 189.759 436.844 203.354C429.236 217.392 423.663 232.342 422.597 246.94C422.597 246.94 456.72 237.28 470.862 245.182C483.492 263.125 492.965 296 492.965 296C492.965 296 501.247 246.614 532.095 200.642C555.35 165.969 578.849 126.545 578.901 107.793C578.901 107.793 585.546 110.966 590.618 108.329C590.618 108.329 617.22 158.512 633.28 173.973C670.942 210.229 681.592 288.301 681.592 288.301L706.935 242.816C706.935 242.816 727.463 239.379 755.872 251.38C755.872 251.38 755.016 229.25 733.299 192.35C733.288 192.334 733.288 192.334 733.277 192.317C732.152 190.386 730.941 188.393 729.702 186.394C724.773 178.502 719.744 171.619 714.81 165.662C714.81 165.662 714.783 165.656 714.798 165.645C709.113 158.765 703.569 153.119 698.517 148.521C635.813 134.63 604.595 106.874 604.285 106.646C604.604 106.819 606.039 107.648 608.357 108.951C609.692 109.8 611.371 110.587 613.243 111.559Z" fill="#BB2529"/>
<path d="M92.75 346.5C103.75 346.5 112.75 348.167 119.75 351.5C126.917 354.667 133.25 358.417 138.75 362.75C142.083 365.25 144.583 365.583 146.25 363.75C148.083 361.75 149.333 357.167 150 350H155.75C155.417 356.167 155.167 363.667 155 372.5C154.833 381.333 154.75 393 154.75 407.5H149C147.833 400.333 146.75 394.667 145.75 390.5C144.75 386.167 143.5 382.5 142 379.5C140.667 376.5 138.833 373.5 136.5 370.5C131.333 363.667 124.833 358.75 117 355.75C109.167 352.583 100.917 351 92.25 351C84.0833 351 76.6667 353.083 70 357.25C63.5 361.25 57.8333 367.083 53 374.75C48.3333 382.417 44.6667 391.667 42 402.5C39.5 413.333 38.25 425.5 38.25 439C38.25 453 39.6667 465.417 42.5 476.25C45.3333 486.917 49.25 495.917 54.25 503.25C59.4167 510.583 65.4167 516.167 72.25 520C79.25 523.667 86.75 525.5 94.75 525.5C102.25 525.5 110.083 524 118.25 521C126.417 518 132.833 513.167 137.5 506.5C141.167 501.667 143.667 496.417 145 490.75C146.5 485.083 147.833 477.167 149 467H154.75C154.75 482.167 154.833 494.417 155 503.75C155.167 512.917 155.417 520.667 155.75 527H150C149.333 519.833 148.167 515.333 146.5 513.5C145 511.667 142.417 511.917 138.75 514.25C132.583 518.583 126 522.417 119 525.75C112.167 528.917 103.333 530.5 92.5 530.5C76.6667 530.5 62.75 526.917 50.75 519.75C38.9167 512.583 29.6667 502.25 23 488.75C16.5 475.25 13.25 459 13.25 440C13.25 421.333 16.6667 405 23.5 391C30.3333 377 39.6667 366.083 51.5 358.25C63.5 350.417 77.25 346.5 92.75 346.5ZM218.619 331.25V424.75C222.952 413.417 228.952 405.583 236.619 401.25C244.452 396.917 252.619 394.75 261.119 394.75C267.452 394.75 272.702 395.583 276.869 397.25C281.202 398.917 284.786 401.25 287.619 404.25C290.786 407.583 293.036 411.75 294.369 416.75C295.702 421.75 296.369 428.5 296.369 437V503.75C296.369 510.75 297.786 515.5 300.619 518C303.619 520.5 308.536 521.75 315.369 521.75V527C312.536 526.833 308.202 526.667 302.369 526.5C296.536 526.167 290.869 526 285.369 526C279.869 526 274.452 526.167 269.119 526.5C263.952 526.667 260.036 526.833 257.369 527V521.75C263.369 521.75 267.619 520.5 270.119 518C272.619 515.5 273.869 510.75 273.869 503.75V431.5C273.869 426.333 273.452 421.583 272.619 417.25C271.786 412.917 269.869 409.417 266.869 406.75C264.036 404.083 259.619 402.75 253.619 402.75C243.452 402.75 235.036 407 228.369 415.5C221.869 423.833 218.619 434.667 218.619 448V503.75C218.619 510.75 219.869 515.5 222.369 518C224.869 520.5 229.119 521.75 235.119 521.75V527C232.452 526.833 228.452 526.667 223.119 526.5C217.952 526.167 212.619 526 207.119 526C201.619 526 195.952 526.167 190.119 526.5C184.286 526.667 179.952 526.833 177.119 527V521.75C183.952 521.75 188.786 520.5 191.619 518C194.619 515.5 196.119 510.75 196.119 503.75V361.25C196.119 353.75 194.786 348.25 192.119 344.75C189.452 341.083 184.452 339.25 177.119 339.25V334C182.452 334.5 187.619 334.75 192.619 334.75C197.452 334.75 202.036 334.5 206.369 334C210.869 333.333 214.952 332.417 218.619 331.25ZM404.092 394.75C408.592 394.75 412.508 395.667 415.842 397.5C419.342 399.333 422.008 401.75 423.842 404.75C425.842 407.583 426.842 410.833 426.842 414.5C426.842 418.667 425.508 422.333 422.842 425.5C420.342 428.667 416.925 430.25 412.592 430.25C409.092 430.25 406.008 429.167 403.342 427C400.675 424.667 399.342 421.417 399.342 417.25C399.342 414.083 400.175 411.417 401.842 409.25C403.675 406.917 405.675 405.083 407.842 403.75C406.675 402.083 404.925 401.25 402.592 401.25C395.592 401.25 389.508 403.917 384.342 409.25C379.175 414.417 375.092 420.667 372.092 428C369.258 435.333 367.842 442.083 367.842 448.25V501.25C367.842 509.417 370.175 514.917 374.842 517.75C379.675 520.417 386.175 521.75 394.342 521.75V527C390.508 526.833 385.092 526.667 378.092 526.5C371.092 526.167 363.675 526 355.842 526C350.175 526 344.508 526.167 338.842 526.5C333.342 526.667 329.175 526.833 326.342 527V521.75C333.175 521.75 338.008 520.5 340.842 518C343.842 515.5 345.342 510.75 345.342 503.75V425.5C345.342 418 344.008 412.5 341.342 409C338.675 405.333 333.675 403.5 326.342 403.5V398.25C331.675 398.75 336.842 399 341.842 399C346.675 399 351.258 398.75 355.592 398.25C360.092 397.583 364.175 396.667 367.842 395.5V426.75C369.675 421.917 372.258 417.083 375.592 412.25C379.092 407.25 383.258 403.083 388.092 399.75C392.925 396.417 398.258 394.75 404.092 394.75ZM466.17 335.75C470.503 335.75 474.253 337.333 477.42 340.5C480.587 343.667 482.17 347.417 482.17 351.75C482.17 356.083 480.587 359.833 477.42 363C474.253 366.167 470.503 367.75 466.17 367.75C461.837 367.75 458.087 366.167 454.92 363C451.753 359.833 450.17 356.083 450.17 351.75C450.17 347.417 451.753 343.667 454.92 340.5C458.087 337.333 461.837 335.75 466.17 335.75ZM479.17 395.5V503.75C479.17 510.75 480.587 515.5 483.42 518C486.42 520.5 491.337 521.75 498.17 521.75V527C495.337 526.833 491.003 526.667 485.17 526.5C479.503 526.167 473.753 526 467.92 526C462.253 526 456.503 526.167 450.67 526.5C444.837 526.667 440.503 526.833 437.67 527V521.75C444.503 521.75 449.337 520.5 452.17 518C455.17 515.5 456.67 510.75 456.67 503.75V425.5C456.67 418 455.337 412.5 452.67 409C450.003 405.333 445.003 403.5 437.67 403.5V398.25C443.003 398.75 448.17 399 453.17 399C458.003 399 462.587 398.75 466.92 398.25C471.42 397.583 475.503 396.667 479.17 395.5ZM555.662 394.75C562.329 394.75 567.995 395.833 572.662 398C577.329 400.167 580.745 402.167 582.912 404C588.412 408.5 591.745 405.5 592.912 395H598.662C598.329 399.667 598.079 405.25 597.912 411.75C597.745 418.083 597.662 426.667 597.662 437.5H591.912C590.912 431.333 589.162 425.333 586.662 419.5C584.329 413.667 580.829 408.917 576.162 405.25C571.495 401.417 565.412 399.5 557.912 399.5C552.079 399.5 547.162 401.167 543.162 404.5C539.329 407.667 537.412 412.417 537.412 418.75C537.412 423.75 538.912 428.083 541.912 431.75C544.912 435.25 548.829 438.583 553.662 441.75C558.495 444.75 563.745 448.083 569.412 451.75C578.912 457.917 586.995 464.167 593.662 470.5C600.329 476.833 603.662 485.167 603.662 495.5C603.662 503.167 601.662 509.583 597.662 514.75C593.662 519.917 588.412 523.833 581.912 526.5C575.579 529.167 568.579 530.5 560.912 530.5C557.245 530.5 553.745 530.167 550.412 529.5C547.245 529 544.162 528.167 541.162 527C539.495 526.167 537.745 525.167 535.912 524C534.245 522.833 532.579 521.583 530.912 520.25C529.245 518.917 527.745 519 526.412 520.5C525.079 521.833 524.079 524.583 523.412 528.75H517.662C517.995 523.417 518.245 516.917 518.412 509.25C518.579 501.583 518.662 491.417 518.662 478.75H524.412C525.579 488.083 527.245 496.25 529.412 503.25C531.579 510.25 534.995 515.75 539.662 519.75C544.329 523.583 550.829 525.5 559.162 525.5C564.162 525.5 569.079 523.75 573.912 520.25C578.912 516.75 581.412 510.583 581.412 501.75C581.412 494.417 578.745 488.417 573.412 483.75C568.079 479.083 561.329 474.167 553.162 469C547.162 465.167 541.495 461.333 536.162 457.5C530.995 453.667 526.745 449.333 523.412 444.5C520.245 439.667 518.662 433.833 518.662 427C518.662 419.5 520.329 413.417 523.662 408.75C527.162 403.917 531.745 400.417 537.412 398.25C543.079 395.917 549.162 394.75 555.662 394.75ZM662.979 356.75V398.5H699.979V403.5H662.979V500.25C662.979 508.083 664.395 513.583 667.229 516.75C670.062 519.917 673.979 521.5 678.979 521.5C683.979 521.5 688.312 519.5 691.979 515.5C695.645 511.333 698.812 504.417 701.479 494.75L706.479 496C704.812 505.667 701.479 513.833 696.479 520.5C691.645 527.167 684.145 530.5 673.979 530.5C668.312 530.5 663.645 529.75 659.979 528.25C656.312 526.917 653.062 524.917 650.229 522.25C646.562 518.417 643.979 513.833 642.479 508.5C641.145 503.167 640.479 496.083 640.479 487.25V403.5H616.479V398.5H640.479V360.25C644.645 360.083 648.645 359.75 652.479 359.25C656.312 358.75 659.812 357.917 662.979 356.75ZM793.607 394.75C799.441 394.75 804.524 395.583 808.857 397.25C813.191 398.917 816.774 401.25 819.607 404.25C822.774 407.583 824.941 411.917 826.107 417.25C827.274 422.583 827.857 429.167 827.857 437V503.75C827.857 510.75 829.274 515.5 832.107 518C835.107 520.5 840.024 521.75 846.857 521.75V527C844.024 526.833 839.691 526.667 833.857 526.5C828.024 526.167 822.357 526 816.857 526C811.357 526 805.941 526.167 800.607 526.5C795.441 526.667 791.524 526.833 788.857 527V521.75C794.857 521.75 799.107 520.5 801.607 518C804.107 515.5 805.357 510.75 805.357 503.75V431.5C805.357 426.333 805.024 421.583 804.357 417.25C803.691 412.917 802.024 409.417 799.357 406.75C796.691 404.083 792.357 402.75 786.357 402.75C779.857 402.75 774.024 404.75 768.857 408.75C763.857 412.75 759.857 418.25 756.857 425.25C754.024 432.083 752.607 439.75 752.607 448.25V503.75C752.607 510.75 753.857 515.5 756.357 518C758.857 520.5 763.107 521.75 769.107 521.75V527C766.441 526.833 762.441 526.667 757.107 526.5C751.941 526.167 746.607 526 741.107 526C735.607 526 729.941 526.167 724.107 526.5C718.274 526.667 713.941 526.833 711.107 527V521.75C717.941 521.75 722.774 520.5 725.607 518C728.607 515.5 730.107 510.75 730.107 503.75V425.5C730.107 418 728.774 412.5 726.107 409C723.441 405.333 718.441 403.5 711.107 403.5V398.25C716.441 398.75 721.607 399 726.607 399C731.441 399 736.024 398.75 740.357 398.25C744.857 397.583 748.941 396.667 752.607 395.5V425C756.941 414.167 762.857 406.417 770.357 401.75C777.857 397.083 785.607 394.75 793.607 394.75ZM868.857 394.75C874.691 394.75 879.774 395.583 884.107 397.25C888.441 398.917 892.024 401.25 894.857 404.25C898.024 407.583 900.191 411.917 901.357 417.25C902.524 422.583 903.107 429.167 903.107 437V503.75C903.107 510.75 904.524 515.5 907.357 518C910.357 520.5 915.274 521.75 922.107 521.75V527C919.274 526.833 914.941 526.667 909.107 526.5C903.274 526.167 897.607 526 892.107 526C886.607 526 881.191 526.167 875.857 526.5C870.691 526.667 866.774 526.833 864.107 527V521.75C870.107 521.75 874.357 520.5 876.857 518C879.357 515.5 880.607 510.75 880.607 503.75V431.5C880.607 426.333 880.274 421.583 879.607 417.25C878.941 412.917 877.274 409.417 874.607 406.75C871.941 404.083 867.607 402.75 861.607 402.75C851.941 402.75 843.857 407.083 837.357 415.75C831.024 424.417 827.857 435.167 827.857 448L827.107 424.75C831.607 413.25 837.691 405.417 845.357 401.25C853.024 396.917 860.857 394.75 868.857 394.75ZM966.531 528.75C955.698 528.75 947.781 526.083 942.781 520.75C937.948 515.25 935.531 508 935.531 499C935.531 492 937.198 486.25 940.531 481.75C944.031 477.083 948.448 473.333 953.781 470.5C959.115 467.5 964.698 465 970.531 463C976.531 460.833 982.198 458.75 987.531 456.75C992.865 454.75 997.198 452.5 1000.53 450C1004.03 447.5 1005.78 444.333 1005.78 440.5V425C1005.78 418 1004.7 412.667 1002.53 409C1000.53 405.333 997.781 402.917 994.281 401.75C990.781 400.417 986.865 399.75 982.531 399.75C978.365 399.75 973.865 400.333 969.031 401.5C964.365 402.667 960.615 405.083 957.781 408.75C960.948 409.417 963.698 411.083 966.031 413.75C968.365 416.417 969.531 419.833 969.531 424C969.531 428.167 968.198 431.5 965.531 434C962.865 436.333 959.448 437.5 955.281 437.5C950.448 437.5 946.865 436 944.531 433C942.365 429.833 941.281 426.333 941.281 422.5C941.281 418.167 942.365 414.667 944.531 412C946.698 409.333 949.448 406.833 952.781 404.5C956.615 401.833 961.531 399.583 967.531 397.75C973.698 395.75 980.615 394.75 988.281 394.75C995.115 394.75 1000.95 395.583 1005.78 397.25C1010.61 398.75 1014.61 401 1017.78 404C1022.11 408 1024.95 412.917 1026.28 418.75C1027.61 424.417 1028.28 431.25 1028.28 439.25V508.75C1028.28 512.75 1028.86 515.75 1030.03 517.75C1031.2 519.583 1033.2 520.5 1036.03 520.5C1038.36 520.5 1040.36 520 1042.03 519C1043.86 518 1045.61 516.75 1047.28 515.25L1050.03 519.5C1046.53 522.167 1043.2 524.417 1040.03 526.25C1036.86 527.917 1032.61 528.75 1027.28 528.75C1018.61 528.75 1012.86 526.5 1010.03 522C1007.2 517.5 1005.78 512.333 1005.78 506.5C1000.45 515.333 994.365 521.25 987.531 524.25C980.865 527.25 973.865 528.75 966.531 528.75ZM977.531 518.75C982.531 518.75 987.448 517.333 992.281 514.5C997.115 511.5 1001.61 506.583 1005.78 499.75V450.75C1003.28 454.417 999.365 457.333 994.031 459.5C988.865 461.667 983.448 464.083 977.781 466.75C972.281 469.25 967.531 472.75 963.531 477.25C959.531 481.583 957.531 487.833 957.531 496C957.531 503.667 959.448 509.417 963.281 513.25C967.115 516.917 971.865 518.75 977.531 518.75ZM1102.29 394.75C1108.96 394.75 1114.63 395.833 1119.29 398C1123.96 400.167 1127.38 402.167 1129.54 404C1135.04 408.5 1138.38 405.5 1139.54 395H1145.29C1144.96 399.667 1144.71 405.25 1144.54 411.75C1144.38 418.083 1144.29 426.667 1144.29 437.5H1138.54C1137.54 431.333 1135.79 425.333 1133.29 419.5C1130.96 413.667 1127.46 408.917 1122.79 405.25C1118.13 401.417 1112.04 399.5 1104.54 399.5C1098.71 399.5 1093.79 401.167 1089.79 404.5C1085.96 407.667 1084.04 412.417 1084.04 418.75C1084.04 423.75 1085.54 428.083 1088.54 431.75C1091.54 435.25 1095.46 438.583 1100.29 441.75C1105.13 444.75 1110.38 448.083 1116.04 451.75C1125.54 457.917 1133.63 464.167 1140.29 470.5C1146.96 476.833 1150.29 485.167 1150.29 495.5C1150.29 503.167 1148.29 509.583 1144.29 514.75C1140.29 519.917 1135.04 523.833 1128.54 526.5C1122.21 529.167 1115.21 530.5 1107.54 530.5C1103.88 530.5 1100.38 530.167 1097.04 529.5C1093.88 529 1090.79 528.167 1087.79 527C1086.13 526.167 1084.38 525.167 1082.54 524C1080.88 522.833 1079.21 521.583 1077.54 520.25C1075.88 518.917 1074.38 519 1073.04 520.5C1071.71 521.833 1070.71 524.583 1070.04 528.75H1064.29C1064.63 523.417 1064.88 516.917 1065.04 509.25C1065.21 501.583 1065.29 491.417 1065.29 478.75H1071.04C1072.21 488.083 1073.88 496.25 1076.04 503.25C1078.21 510.25 1081.63 515.75 1086.29 519.75C1090.96 523.583 1097.46 525.5 1105.79 525.5C1110.79 525.5 1115.71 523.75 1120.54 520.25C1125.54 516.75 1128.04 510.583 1128.04 501.75C1128.04 494.417 1125.38 488.417 1120.04 483.75C1114.71 479.083 1107.96 474.167 1099.79 469C1093.79 465.167 1088.13 461.333 1082.79 457.5C1077.63 453.667 1073.38 449.333 1070.04 444.5C1066.88 439.667 1065.29 433.833 1065.29 427C1065.29 419.5 1066.96 413.417 1070.29 408.75C1073.79 403.917 1078.38 400.417 1084.04 398.25C1089.71 395.917 1095.79 394.75 1102.29 394.75Z" fill="white"/>
<path d="M606.998 597L584.507 610.145L562 597L575.972 618.175L562 639.349L584.507 626.204L606.998 639.349L593.042 618.175L606.998 597Z" fill="#BB2529"/>
<path d="M49.64 710.8C61 710.8 70.2 713.68 77.24 719.44C84.36 725.2 87.92 735.8 87.92 751.24C87.92 766.68 84.32 777.52 77.12 783.76C70 789.92 61.28 793 50.96 793H33.32V710.8H49.64ZM40.52 716.8V787H51.44C70.72 787 80.36 775.08 80.36 751.24C80.36 741.8 78.96 734.56 76.16 729.52C73.36 724.48 69.8 721.12 65.48 719.44C61.24 717.68 56.28 716.8 50.6 716.8H40.52ZM165.06 759.28C165.06 761.04 164.98 762.72 164.82 764.32H122.94C123.34 772.48 125.26 778.56 128.7 782.56C132.22 786.48 136.82 788.44 142.5 788.44C145.78 788.44 148.66 787.96 151.14 787C153.7 785.96 156.46 784.36 159.42 782.2L162.66 786.64C159.54 789.2 156.34 791.12 153.06 792.4C149.78 793.68 146.14 794.32 142.14 794.32C133.82 794.32 127.3 791.48 122.58 785.8C117.86 780.12 115.5 772.24 115.5 762.16C115.5 755.52 116.5 749.72 118.5 744.76C120.58 739.72 123.5 735.84 127.26 733.12C131.1 730.32 135.54 728.92 140.58 728.92C148.58 728.92 154.66 731.64 158.82 737.08C162.98 742.44 165.06 749.84 165.06 759.28ZM158.22 757.12C158.22 750.08 156.74 744.6 153.78 740.68C150.9 736.68 146.58 734.68 140.82 734.68C135.62 734.68 131.42 736.68 128.22 740.68C125.02 744.68 123.26 750.76 122.94 758.92H158.22V757.12ZM218.356 728.92C221.956 728.92 225.156 729.44 227.956 730.48C230.756 731.44 233.476 733.04 236.116 735.28L232.636 739.84C230.556 738.16 228.396 736.92 226.156 736.12C223.996 735.32 221.516 734.92 218.716 734.92C212.796 734.92 208.076 737.24 204.556 741.88C201.036 746.44 199.276 753.12 199.276 761.92C199.276 770.64 200.996 777.2 204.436 781.6C207.956 786 212.676 788.2 218.596 788.2C221.396 788.2 223.916 787.76 226.156 786.88C228.476 786 230.796 784.68 233.116 782.92L236.476 787.6C231.196 792.08 225.196 794.32 218.476 794.32C213.116 794.32 208.436 793.04 204.436 790.48C200.436 787.92 197.316 784.24 195.076 779.44C192.916 774.56 191.836 768.76 191.836 762.04C191.836 755.4 192.916 749.6 195.076 744.64C197.316 739.6 200.436 735.72 204.436 733C208.436 730.28 213.076 728.92 218.356 728.92ZM284.734 728.92C293.054 728.92 299.534 731.8 304.174 737.56C308.894 743.24 311.254 751.2 311.254 761.44C311.254 771.6 308.854 779.64 304.054 785.56C299.334 791.4 292.854 794.32 284.614 794.32C276.294 794.32 269.774 791.44 265.054 785.68C260.414 779.84 258.094 771.84 258.094 761.68C258.094 755.04 259.174 749.24 261.334 744.28C263.494 739.32 266.574 735.52 270.574 732.88C274.574 730.24 279.294 728.92 284.734 728.92ZM284.734 734.8C278.654 734.8 273.934 737.08 270.574 741.64C267.214 746.2 265.534 752.88 265.534 761.68C265.534 770.4 267.174 777.04 270.454 781.6C273.814 786.16 278.534 788.44 284.614 788.44C290.694 788.44 295.414 786.16 298.774 781.6C302.214 777.04 303.934 770.32 303.934 761.44C303.934 752.72 302.254 746.12 298.894 741.64C295.614 737.08 290.894 734.8 284.734 734.8ZM368.049 728.92C370.529 728.92 372.609 729.16 374.289 729.64L372.969 736.24C371.209 735.76 369.369 735.52 367.449 735.52C363.209 735.52 359.769 737.08 357.129 740.2C354.569 743.24 352.409 748.04 350.649 754.6V793H343.689V730.24H349.689L350.289 744.28C351.969 739.08 354.249 735.24 357.129 732.76C360.089 730.2 363.729 728.92 368.049 728.92ZM435.236 779.08C435.236 782.36 435.636 784.72 436.436 786.16C437.316 787.6 438.676 788.68 440.516 789.4L438.956 794.32C436.076 793.76 433.836 792.68 432.236 791.08C430.716 789.48 429.716 787.04 429.236 783.76C424.916 790.8 418.396 794.32 409.676 794.32C403.676 794.32 398.916 792.64 395.396 789.28C391.956 785.84 390.236 781.28 390.236 775.6C390.236 769.12 392.516 764.12 397.076 760.6C401.716 757.08 408.116 755.32 416.276 755.32H428.276V749.2C428.276 744.16 427.156 740.52 424.916 738.28C422.676 735.96 418.956 734.8 413.756 734.8C408.956 734.8 403.276 736 396.716 738.4L394.916 733.12C401.956 730.32 408.556 728.92 414.716 728.92C428.396 728.92 435.236 735.56 435.236 748.84V779.08ZM410.876 788.68C418.396 788.68 424.196 785 428.276 777.64V760.36H417.356C410.956 760.36 406.076 761.6 402.716 764.08C399.356 766.56 397.676 770.28 397.676 775.24C397.676 779.56 398.836 782.88 401.156 785.2C403.476 787.52 406.716 788.68 410.876 788.68ZM501.132 790.36C497.132 793 492.732 794.32 487.932 794.32C483.132 794.32 479.372 792.92 476.652 790.12C473.932 787.24 472.572 783.12 472.572 777.76V735.88H462.012V730.24H472.572V715.24L479.532 714.4V730.24H495.732L494.892 735.88H479.532V777.4C479.532 781.08 480.292 783.84 481.812 785.68C483.332 787.44 485.652 788.32 488.772 788.32C491.972 788.32 495.172 787.4 498.372 785.56L501.132 790.36ZM532.43 730.24V793H525.47V730.24H532.43ZM528.83 702.64C530.43 702.64 531.71 703.12 532.67 704.08C533.63 705.04 534.11 706.24 534.11 707.68C534.11 709.12 533.63 710.32 532.67 711.28C531.71 712.24 530.43 712.72 528.83 712.72C527.31 712.72 526.07 712.24 525.11 711.28C524.15 710.32 523.67 709.12 523.67 707.68C523.67 706.24 524.15 705.04 525.11 704.08C526.07 703.12 527.31 702.64 528.83 702.64ZM591.414 728.92C599.734 728.92 606.214 731.8 610.854 737.56C615.574 743.24 617.934 751.2 617.934 761.44C617.934 771.6 615.534 779.64 610.734 785.56C606.014 791.4 599.534 794.32 591.294 794.32C582.974 794.32 576.454 791.44 571.734 785.68C567.094 779.84 564.774 771.84 564.774 761.68C564.774 755.04 565.854 749.24 568.014 744.28C570.174 739.32 573.254 735.52 577.254 732.88C581.254 730.24 585.974 728.92 591.414 728.92ZM591.414 734.8C585.334 734.8 580.614 737.08 577.254 741.64C573.894 746.2 572.214 752.88 572.214 761.68C572.214 770.4 573.854 777.04 577.134 781.6C580.494 786.16 585.214 788.44 591.294 788.44C597.374 788.44 602.094 786.16 605.454 781.6C608.894 777.04 610.614 770.32 610.614 761.44C610.614 752.72 608.934 746.12 605.574 741.64C602.294 737.08 597.574 734.8 591.414 734.8ZM678.088 728.92C683.768 728.92 688.088 730.6 691.048 733.96C694.088 737.32 695.608 742.04 695.608 748.12V793H688.648V749.08C688.648 744.04 687.648 740.36 685.648 738.04C683.648 735.72 680.688 734.56 676.768 734.56C672.768 734.56 669.208 735.68 666.088 737.92C663.048 740.08 660.128 743.28 657.328 747.52V793H650.368V730.24H656.368L657.088 740.92C659.648 737.16 662.688 734.24 666.208 732.16C669.728 730 673.688 728.92 678.088 728.92ZM747.807 728.92C751.727 728.92 755.287 729.52 758.487 730.72C761.687 731.84 764.807 733.56 767.847 735.88L764.607 740.44C761.727 738.44 759.007 737 756.447 736.12C753.887 735.16 751.087 734.68 748.047 734.68C743.887 734.68 740.527 735.64 737.967 737.56C735.407 739.48 734.127 742.04 734.127 745.24C734.127 748.28 735.207 750.64 737.367 752.32C739.607 754 743.607 755.6 749.367 757.12C756.487 758.96 761.607 761.28 764.727 764.08C767.927 766.88 769.527 770.88 769.527 776.08C769.527 781.68 767.367 786.12 763.047 789.4C758.727 792.68 753.327 794.32 746.847 794.32C742.047 794.32 737.847 793.64 734.247 792.28C730.647 790.84 727.367 788.84 724.407 786.28L728.247 781.84C731.047 784.08 733.887 785.76 736.767 786.88C739.727 787.92 743.047 788.44 746.727 788.44C751.367 788.44 755.087 787.4 757.887 785.32C760.767 783.16 762.207 780.2 762.207 776.44C762.207 773.88 761.727 771.8 760.767 770.2C759.807 768.6 758.167 767.24 755.847 766.12C753.527 764.92 750.127 763.72 745.647 762.52C739.007 760.76 734.207 758.56 731.247 755.92C728.367 753.28 726.927 749.76 726.927 745.36C726.927 742.24 727.847 739.44 729.687 736.96C731.527 734.4 734.007 732.44 737.127 731.08C740.327 729.64 743.887 728.92 747.807 728.92ZM864.946 709.48C869.986 709.48 874.306 710.24 877.906 711.76C881.586 713.2 885.146 715.48 888.586 718.6L884.386 723.16C881.266 720.52 878.226 718.6 875.266 717.4C872.306 716.2 868.946 715.6 865.186 715.6C860.066 715.6 855.946 716.88 852.826 719.44C849.706 721.92 848.146 725.28 848.146 729.52C848.146 732.4 848.706 734.8 849.826 736.72C851.026 738.56 852.986 740.24 855.706 741.76C858.426 743.2 862.306 744.68 867.346 746.2C872.786 747.88 877.186 749.68 880.546 751.6C883.906 753.52 886.506 756 888.346 759.04C890.186 762.08 891.106 765.92 891.106 770.56C891.106 775.2 889.986 779.32 887.746 782.92C885.506 786.52 882.306 789.32 878.146 791.32C874.066 793.32 869.306 794.32 863.866 794.32C853.626 794.32 844.866 790.88 837.586 784L841.666 779.44C845.026 782.32 848.426 784.52 851.866 786.04C855.306 787.48 859.266 788.2 863.746 788.2C869.666 788.2 874.466 786.64 878.146 783.52C881.906 780.4 883.786 776.16 883.786 770.8C883.786 767.44 883.146 764.68 881.866 762.52C880.666 760.36 878.666 758.52 875.866 757C873.146 755.4 869.266 753.8 864.226 752.2C855.826 749.64 849.826 746.68 846.226 743.32C842.626 739.96 840.826 735.4 840.826 729.64C840.826 725.8 841.826 722.36 843.826 719.32C845.906 716.2 848.746 713.8 852.346 712.12C856.026 710.36 860.226 709.48 864.946 709.48ZM950.034 728.92C955.634 728.92 959.954 730.64 962.994 734.08C966.034 737.44 967.554 742.12 967.554 748.12V793H960.594V749.08C960.594 739.4 956.634 734.56 948.714 734.56C944.714 734.56 941.154 735.68 938.034 737.92C934.994 740.08 932.074 743.28 929.274 747.52V793H922.314V704.68L929.274 703.84V740.68C934.874 732.84 941.794 728.92 950.034 728.92ZM1025.99 728.92C1034.31 728.92 1040.79 731.8 1045.43 737.56C1050.15 743.24 1052.51 751.2 1052.51 761.44C1052.51 771.6 1050.11 779.64 1045.31 785.56C1040.59 791.4 1034.11 794.32 1025.87 794.32C1017.55 794.32 1011.03 791.44 1006.31 785.68C1001.67 779.84 999.352 771.84 999.352 761.68C999.352 755.04 1000.43 749.24 1002.59 744.28C1004.75 739.32 1007.83 735.52 1011.83 732.88C1015.83 730.24 1020.55 728.92 1025.99 728.92ZM1025.99 734.8C1019.91 734.8 1015.19 737.08 1011.83 741.64C1008.47 746.2 1006.79 752.88 1006.79 761.68C1006.79 770.4 1008.43 777.04 1011.71 781.6C1015.07 786.16 1019.79 788.44 1025.87 788.44C1031.95 788.44 1036.67 786.16 1040.03 781.6C1043.47 777.04 1045.19 770.32 1045.19 761.44C1045.19 752.72 1043.51 746.12 1040.15 741.64C1036.87 737.08 1032.15 734.8 1025.99 734.8ZM1110.87 728.92C1118.47 728.92 1124.15 731.76 1127.91 737.44C1131.75 743.04 1133.67 751 1133.67 761.32C1133.67 771.4 1131.59 779.44 1127.43 785.44C1123.35 791.36 1117.47 794.32 1109.79 794.32C1106.03 794.32 1102.63 793.56 1099.59 792.04C1096.55 790.44 1093.99 788.32 1091.91 785.68V816.64L1084.95 817.6V730.24H1090.95L1091.55 739.36C1093.87 736.08 1096.67 733.52 1099.95 731.68C1103.31 729.84 1106.95 728.92 1110.87 728.92ZM1108.47 788.44C1114.23 788.44 1118.63 786.16 1121.67 781.6C1124.71 777.04 1126.23 770.28 1126.23 761.32C1126.23 743.56 1120.67 734.68 1109.55 734.68C1105.79 734.68 1102.51 735.64 1099.71 737.56C1096.99 739.48 1094.39 742.12 1091.91 745.48V778.84C1096.07 785.24 1101.59 788.44 1108.47 788.44Z" fill="white" fill-opacity="0.7"/>
<line x1="24" y1="618" x2="524" y2="618" stroke="#BB2529" stroke-opacity="0.8" stroke-width="6"/>
<line x1="655" y1="618" x2="1155" y2="618" stroke="#BB2529" stroke-opacity="0.8" stroke-width="6"/>
</svg>
